<svg width="184" height="142" viewBox="0 0 184 142" fill="none" xmlns="http://www.w3.org/2000/svg">
<path d="M51.8066 24.2528C67.414 5.28845 88.9437 2.1174 94.8016 1.33266C126.526 -2.85946 149.32 16.8437 154.34 21.1919C160.848 26.8227 177.022 42.5793 181.521 68.3424C182.981 76.784 187.978 105.349 169.255 125.222C151.277 144.312 124.153 141.905 112.162 140.85C107.667 140.437 94.7603 139.145 80.6328 132.147C73.0723 128.402 65.1837 123.058 57.9766 115.396C53.3829 110.456 42.0571 98.0268 38.5992 78.1951C37.5116 71.791 33.9596 45.9339 51.8066 24.2528Z" fill="#48143A"/>
<path d="M41.4032 77.9152C39.6663 81.9352 26.7595 85.7212 26.7595 85.7212L11.8794 91.0836C11.8794 91.0836 17.7924 70.9765 21.7184 63.5858C25.6443 56.1951 41.1279 55.057 41.1279 55.057C41.1279 55.057 43.1402 73.8975 41.4032 77.9152Z" fill="#DFAC35"/>
<path d="M76.7092 117.73C76.7987 116.851 76.3788 115.984 75.6032 115.564C75.344 115.422 75.087 115.282 74.8277 115.142C73.942 114.648 72.7052 114.86 72.0674 115.676C71.8884 115.826 71.7094 116.048 71.5695 116.271C71.044 117.269 71.3308 118.724 72.4368 119.247C73.3592 119.703 74.1623 119.758 75.1811 119.591C76.0163 119.462 76.6151 118.499 76.7092 117.73ZM122.233 132.45C122.015 132.456 121.797 132.461 121.613 132.463C120.448 132.489 119.376 133.535 119.473 134.703C119.534 135.905 120.468 136.871 121.71 136.846C121.928 136.841 122.146 136.837 122.329 136.832C123.495 136.807 124.566 135.761 124.47 134.593C124.406 133.39 123.474 132.424 122.233 132.45ZM99.0075 119.657C98.1884 118.944 96.651 118.76 95.9076 119.724C95.6231 120.096 95.4097 120.394 95.2743 120.871C95.1412 121.495 95.2307 122.113 95.5313 122.654C95.9879 123.414 96.8369 123.941 97.7134 123.886C98.8423 123.827 99.9529 122.851 99.8519 121.649C99.845 121.248 99.689 120.885 99.5009 120.559C99.455 120.16 99.2668 119.871 99.0075 119.657ZM163.78 47.7237C163.78 47.7971 163.782 47.8682 163.785 47.944C163.81 49.1119 164.854 50.1834 166.02 50.0871C167.222 50.0228 168.188 49.0889 168.16 47.8476C168.158 47.7742 168.158 47.7007 168.156 47.6296C168.131 46.4617 167.086 45.3878 165.921 45.4865C164.755 45.5485 163.753 46.4823 163.78 47.7237ZM105.685 91.0239C105.577 91.1341 105.469 91.2121 105.361 91.3222C104.503 92.1092 104.574 93.6787 105.428 94.4267C106.359 95.2459 107.635 95.1816 108.528 94.3579C108.635 94.2477 108.743 94.172 108.851 94.0596C109.709 93.2749 109.638 91.7054 108.785 90.9574C107.855 90.1359 106.577 90.1635 105.685 91.0239ZM52.0842 92.6232C52.3688 92.3616 52.5799 91.9188 52.6418 91.4782C52.7451 91.1111 52.7359 90.7463 52.6533 90.3103C52.4881 89.4384 51.6368 88.7982 50.8291 88.5963C50.3151 88.4609 49.8425 88.5435 49.3721 88.6995C49.2987 88.7018 49.2619 88.7018 49.1885 88.7041C48.0206 88.656 46.9513 89.8124 47.0477 90.9413C47.112 92.1459 48.0045 92.9674 49.138 93.089C49.5075 93.2634 49.948 93.4355 50.384 93.3919C51.0769 93.3391 51.545 93.0362 52.0842 92.6232ZM122.377 85.1843C123.373 85.6731 124.826 85.4207 125.349 84.3147C125.454 84.0944 125.56 83.8718 125.665 83.686C126.154 82.6534 125.904 81.2354 124.798 80.71C123.802 80.2212 122.348 80.4713 121.824 81.5796C121.721 81.7999 121.616 82.0224 121.51 82.206C121.021 83.2041 121.269 84.6222 122.377 85.1843ZM135.906 131.972C136.356 132.583 136.879 133.046 137.613 133.248C138.164 133.383 138.857 133.404 139.362 133.175C139.903 132.943 140.337 132.679 140.653 132.124C140.933 131.644 141.03 130.947 140.835 130.439C140.642 129.896 140.3 129.393 139.786 129.148C139.49 129.008 139.123 128.87 138.758 128.877C138.611 128.808 138.462 128.739 138.318 128.705C137.801 128.569 137.074 128.659 136.643 128.962C135.709 129.565 135.156 131.002 135.906 131.972ZM77.058 46.2437C76.9937 45.0391 76.0599 44.0731 74.8208 44.1006C74.3848 44.1098 73.9099 44.119 73.4716 44.1281C72.3037 44.1534 71.2322 45.1997 71.3308 46.3676C71.3928 47.5722 72.3266 48.536 73.568 48.5107C74.004 48.5015 74.4789 48.4901 74.9172 48.4809C76.0828 48.4556 77.1544 47.4093 77.058 46.2437ZM107.217 28.7501C106.183 28.2247 104.767 28.5115 104.244 29.6175C104.138 29.8401 104.033 30.0259 103.929 30.2462C103.441 31.2787 103.691 32.699 104.797 33.2222C105.829 33.7476 107.247 33.4631 107.77 32.3549C107.874 32.1323 107.979 31.9487 108.085 31.7262C108.573 30.7303 108.323 29.3123 107.217 28.7501ZM95.451 4.42345C94.9164 5.02003 94.6846 6.04798 94.9944 6.84419C94.898 7.53943 95.0609 8.2668 95.6185 8.76701C96.5111 9.55174 97.8993 9.59305 98.7184 8.70047C99.7877 7.50731 99.8886 5.42387 98.5509 4.35691C98.0691 4.00126 97.6262 3.71903 96.9677 3.73509C96.4583 3.74427 95.8457 4.01273 95.451 4.42345ZM117.433 116.337C117.396 116.337 117.362 116.337 117.362 116.374C117.435 116.374 117.506 116.372 117.545 116.372C117.506 116.335 117.469 116.335 117.433 116.337ZM119.695 118.04C119.86 118.914 119.518 119.981 118.688 120.364C117.749 120.823 116.694 120.883 115.872 120.098C115.388 119.632 115.12 119.017 115.106 118.361C115.035 116.828 116.464 115.408 118.045 115.922C119.037 116.266 119.674 117.055 119.695 118.04ZM69.2061 22.4149C68.8045 22.3507 68.403 22.3231 68.0405 22.4402C67.5265 22.3415 66.946 22.4287 66.5146 22.7293C65.4706 23.4452 65.2411 24.6567 65.7757 25.7397C66.2324 26.607 67.3016 27.1302 68.2493 27.0751C68.7586 27.0269 69.2313 26.9076 69.6627 26.607C70.2386 26.1917 70.5186 25.7099 70.7595 25.0468C70.9316 24.5328 70.7687 23.8054 70.5048 23.374C70.2776 22.9404 69.7568 22.5113 69.2061 22.4149ZM80.6053 92.1161C80.3828 91.9371 80.1602 91.7238 79.8986 91.5471C79.0083 90.8358 77.6179 90.682 76.7987 91.6136C76.053 92.4695 75.9015 93.9334 76.8652 94.7158C77.0901 94.8948 77.3127 95.1082 77.572 95.2849C78.4622 95.9962 79.8527 96.1499 80.6719 95.2183C81.4199 94.3969 81.5346 92.8986 80.6053 92.1161ZM83.2142 66.0892C82.0119 66.1511 81.0482 67.085 81.0734 68.3263C81.0803 68.5466 81.0849 68.7646 81.0872 68.9459C81.1124 70.1161 82.1587 71.1876 83.3244 71.089C84.5267 71.0293 85.4904 70.0954 85.4652 68.8518C85.4606 68.6338 85.4537 68.4135 85.4514 68.2323C85.4262 67.0988 84.3799 65.9905 83.2142 66.0892ZM135.069 47.8361C135.13 49.0385 136.064 50.0045 137.303 49.9792C137.414 49.9769 137.524 49.9723 137.632 49.97C138.799 49.9448 139.871 48.8985 139.772 47.7329C139.71 46.5282 138.776 45.5622 137.537 45.5898C137.427 45.5921 137.317 45.5944 137.209 45.5966C136.078 45.6219 135.007 46.6315 135.069 47.8361ZM168.261 59.1688C168.323 60.3712 169.257 61.3395 170.496 61.3119C170.606 61.3096 170.716 61.3074 170.824 61.3051C171.992 61.2798 173.064 60.2335 172.965 59.0679C172.903 57.8632 171.969 56.8972 170.728 56.9248C170.62 56.9271 170.51 56.9294 170.402 56.9317C169.269 56.9179 168.163 57.9665 168.261 59.1688ZM166.226 111.81C165.405 112.632 165.402 114.164 166.295 114.912C167.224 115.732 168.537 115.704 169.395 114.846C169.503 114.733 169.608 114.623 169.716 114.548C170.537 113.724 170.542 112.191 169.649 111.443C168.718 110.624 167.405 110.651 166.55 111.512C166.442 111.622 166.336 111.734 166.226 111.81ZM171.315 97.4555C171.377 100.301 175.79 100.207 175.728 97.3591C175.631 94.5116 171.256 94.608 171.315 97.4555ZM172.949 71.7429C173.011 72.9452 173.943 73.9113 175.184 73.886C175.693 73.8745 176.242 73.8631 176.751 73.8516C177.919 73.8264 178.991 72.78 178.892 71.6121C178.83 70.4098 177.896 69.4438 176.657 69.469C176.145 69.4805 175.599 69.492 175.09 69.5034C173.956 69.492 172.885 70.5383 172.949 71.7429ZM145.373 26.6828C145.708 27.004 146.007 27.2885 146.342 27.6098C147.161 28.3968 148.659 28.4381 149.441 27.5432C150.224 26.6506 150.268 25.2969 149.375 24.4387C149.038 24.1198 148.742 23.8329 148.404 23.5117C147.585 22.727 146.089 22.6857 145.304 23.5783C144.522 24.4364 144.478 25.8246 145.373 26.6828ZM151.1 50.2637C151.064 50.1903 150.99 50.1559 150.951 50.0825C150.132 49.3712 148.597 49.1853 147.851 50.1513C147.461 50.6332 147.145 51.1884 147.195 51.8447C147.246 52.4642 147.477 53.0814 147.925 53.5082C148.333 53.8662 148.813 54.1117 149.324 54.1369C150.093 54.2287 150.706 53.9235 151.279 53.4371C152.177 52.6868 152.03 51.0462 151.213 50.3326C151.139 50.2982 151.1 50.2637 151.1 50.2637ZM154.499 38.6832C153.888 39.1352 153.468 39.8741 153.487 40.7139C153.507 41.7372 154.109 42.6 154.96 43.0566C156.142 43.7266 157.7 43.2906 158.367 42.1067C158.578 41.7372 158.679 41.2967 158.705 40.8561C158.771 40.528 158.764 40.1632 158.647 39.8374C158.413 39.1467 157.927 38.6465 157.339 38.3666L157.3 38.3298C156.674 37.9788 156.054 38.0293 155.361 38.1165C155.072 38.1968 154.749 38.4216 154.499 38.6832ZM154.276 72.1468C154.338 73.3514 155.272 74.3174 156.511 74.2898C156.839 74.283 157.133 74.2761 157.459 74.2692C158.627 74.244 159.698 73.1976 159.599 72.032C159.537 70.8274 158.604 69.8614 157.365 69.8889C157.036 69.8958 156.745 69.9004 156.417 69.9096C155.286 69.8958 154.214 70.9421 154.276 72.1468ZM143.964 98.0475C144.357 99.3187 145.392 99.952 146.635 100.071C147.766 100.156 148.872 98.9263 148.776 97.8341C148.73 97.4326 148.613 97.07 148.423 96.7465C148.414 96.3427 148.333 95.9067 148.108 95.6199C147.505 94.7204 146.069 94.1674 145.098 94.881C144.13 95.6336 143.609 96.7763 143.964 98.0475ZM157.422 102.905C157.493 102.832 157.566 102.756 157.638 102.682C157.566 102.756 157.493 102.832 157.422 102.905ZM157.472 101.882C157.83 101.473 158.48 101.202 159.028 101.191C159.648 101.177 160.127 101.423 160.611 101.813C160.795 101.957 160.91 102.1 161.022 102.279C161.866 102.554 162.468 103.309 162.525 104.293C162.585 105.422 161.515 106.579 160.384 106.53C159.946 106.503 159.544 106.512 159.106 106.485C158.083 106.434 157.268 105.867 156.956 104.924C156.839 104.562 156.83 104.197 156.896 103.866C156.809 103.21 157.048 102.403 157.472 101.882ZM131.787 73.255C131.725 72.0504 130.791 71.0844 129.552 71.1119C129.442 71.1142 129.334 71.1165 129.224 71.1188C128.056 71.144 126.985 72.1903 127.084 73.356C127.145 74.5606 128.079 75.5266 129.318 75.4991C129.429 75.4968 129.536 75.4945 129.647 75.4922C130.778 75.4669 131.886 74.4573 131.787 73.255ZM129.55 109.791H129.587C129.55 109.791 129.516 109.793 129.55 109.791C129.516 109.793 129.516 109.793 129.55 109.791ZM130.679 106.335C130.941 106.583 131.168 106.907 131.211 107.235C131.296 107.818 131.342 108.293 131.136 108.843C130.927 109.323 130.571 109.77 130.103 110.034C129.167 110.603 127.997 110.445 127.178 109.734C126.361 109.02 126.257 107.671 126.785 106.783C127.384 105.785 128.435 105.434 129.534 105.629C130.046 105.654 130.415 105.938 130.679 106.335ZM134.981 89.3283C134.919 88.1993 133.949 87.0498 132.746 87.1852C132.418 87.231 132.056 87.2379 131.725 87.2815C130.78 87.3756 129.844 87.9446 129.647 88.9336C129.449 89.9615 129.869 90.7922 130.72 91.3956C131.535 91.9601 132.522 91.9761 133.467 91.8086C133.976 91.726 134.513 91.2029 134.759 90.76C134.968 90.3906 135.066 89.8744 135.02 89.4384C134.984 89.4017 134.984 89.3673 134.981 89.3283ZM150.935 123.391C150.375 124.499 150.768 125.733 151.8 126.367C152.135 126.58 152.431 126.793 152.764 126.968C153.728 127.603 155.249 127.133 155.735 126.098C156.298 124.99 155.905 123.758 154.87 123.122C154.538 122.911 154.239 122.698 153.907 122.523C152.982 121.922 151.461 122.393 150.935 123.391ZM130.094 124.793C129.454 123.856 128.056 123.338 127.088 124.054C126.98 124.13 126.836 124.242 126.728 124.318C125.794 124.995 125.312 126.321 125.991 127.328C126.631 128.264 128.029 128.783 128.999 128.067C129.107 127.991 129.25 127.879 129.357 127.803C130.291 127.163 130.775 125.837 130.094 124.793ZM103.202 107.843C103.069 108.43 103.193 109.121 103.532 109.626C103.622 110.319 103.961 110.931 104.588 111.209C105.435 111.558 106.35 111.682 107.178 111.154C107.754 110.775 108.216 110.218 108.383 109.52C108.75 107.942 107.332 106.475 105.866 106.214C104.767 106.019 103.468 106.595 103.202 107.843ZM97.4886 71.44C96.9861 71.8898 96.8208 72.6607 96.908 73.317C97.0319 74.0076 97.4082 74.5101 98.0002 74.9002C98.1494 75.0057 98.3329 75.1113 98.4821 75.2168C99.4435 75.8547 100.967 75.3843 101.456 74.3495C101.63 74.0168 101.697 73.7231 101.69 73.395C102.146 72.5804 101.974 71.3437 101.268 70.7379C100.302 69.882 99.0993 69.983 98.1677 70.8044C97.9543 71.0293 97.7019 71.2175 97.4886 71.44ZM105.797 55.8831C105.412 56.6219 105.467 57.3883 105.806 58.0009C105.852 58.4025 105.971 58.8017 106.123 59.0541C106.387 59.5222 106.942 59.9123 107.458 60.0476C108.007 60.183 108.663 60.1303 109.129 59.793C109.634 59.4534 109.879 59.0082 110.122 58.4552C110.641 57.1313 109.847 55.7592 108.771 55.0524C107.844 54.3778 106.286 54.8872 105.797 55.8831ZM121.93 27.5547C122.006 27.6258 122.045 27.736 122.118 27.8071C122.045 27.6992 122.006 27.6258 121.93 27.5547ZM124.442 28.998C124.11 30.4665 122.644 31.7399 121.072 31.6275C120.597 31.6023 120.191 31.4646 119.821 31.2535C119.454 31.1525 119.124 31.0126 118.862 30.7257C117.816 29.5808 117.561 27.9792 118.337 26.6093C119.037 25.2808 120.702 24.6957 122.097 25.1408C123.752 25.6525 124.844 27.2725 124.442 28.998ZM105.657 20.7491C105.692 20.6757 105.726 20.6022 105.763 20.5288C105.726 20.6022 105.692 20.6757 105.657 20.7491ZM106.947 21.3067C106.664 21.8229 106.199 22.1258 105.655 22.3576C104.496 22.8188 103.181 22.7017 102.25 21.8092C101.281 20.8799 101.093 18.9479 102.204 18.0484C102.672 17.6721 103.14 17.4059 103.76 17.3578C104.342 17.3073 104.895 17.5872 105.34 17.9796C105.379 18.014 105.379 18.014 105.416 18.0507C106.222 18.2159 106.892 18.8607 107.165 19.6202C107.284 20.1296 107.19 20.8248 106.947 21.3067ZM123.525 54.0015C124.626 54.2333 125.961 53.6206 126.191 52.4114C126.29 51.8952 126.386 51.3468 126.485 50.8328C126.68 49.697 126.106 48.3937 124.897 48.1642C123.795 47.9325 122.46 48.5474 122.228 49.7566C122.132 50.2706 122.033 50.819 121.935 51.333C121.705 52.4711 122.315 53.7354 123.525 54.0015ZM133.215 19.494C134.057 19.6225 134.997 19.3471 135.53 18.6771C135.995 18.2641 136.312 17.7111 136.225 17.0549C136.131 16.1072 135.75 15.3477 134.901 14.8911C133.942 14.4024 132.742 14.5722 131.992 15.3202C130.709 16.6625 131.344 19.1682 133.215 19.494ZM160.632 59.0059C159.43 59.0679 158.464 60.0018 158.491 61.2431C158.493 61.3532 158.496 61.4634 158.498 61.5735C158.523 62.7414 159.567 63.813 160.733 63.7166C161.935 63.6524 162.901 62.7185 162.874 61.4771C162.871 61.367 162.869 61.2569 162.867 61.149C162.844 60.0178 161.834 58.944 160.632 59.0059ZM160.969 84.7484C160.575 85.0489 160.219 85.4941 160.123 85.9713C159.891 87.1094 160.501 88.376 161.713 88.6399C162.298 88.7753 162.92 88.7959 163.498 88.6009C164.404 88.2911 165.081 87.5087 165.205 86.5565C165.338 85.9323 165.214 85.2761 164.764 84.7759C164.728 84.7392 164.691 84.668 164.654 84.6336C164.014 83.842 163.099 83.6447 162.119 83.8466C161.683 83.9659 161.254 84.3032 160.969 84.7484ZM86.9681 126.53C86.9337 126.493 86.8947 126.495 86.8947 126.458C86.8557 126.387 86.7822 126.314 86.7455 126.279C86.3348 125.887 85.7451 125.644 85.1623 125.655C84.5451 125.706 84.1091 125.935 83.6089 126.348C82.6039 127.172 82.7897 128.886 83.6823 129.705C84.6116 130.527 86.1834 130.676 87.0369 129.634C87.7459 128.742 87.8997 127.351 86.9681 126.53ZM93.3722 112.108C94.1179 111.255 94.2326 109.825 93.3033 109.006C92.4475 108.258 90.9858 108.143 90.2034 109.073C90.0956 109.185 90.0267 109.298 89.9189 109.41C89.1709 110.266 89.0561 111.693 89.9854 112.512C90.8413 113.26 92.3029 113.375 93.0853 112.446C93.1932 112.333 93.2987 112.221 93.3722 112.108ZM109.831 80.3773C109.149 80.9394 109.101 82.0752 109.445 82.798C109.829 83.6286 110.604 84.0852 111.481 84.1036C111.919 84.1311 112.32 84.1242 112.759 84.1495C113.929 84.1977 114.998 83.0412 114.9 81.9123C114.897 81.8022 114.861 81.7287 114.858 81.6576C114.838 80.671 114.234 79.8082 113.206 79.5375C112.619 79.3677 111.963 79.3837 111.382 79.5398C110.762 79.6269 110.333 79.9665 109.831 80.3773ZM141.229 61.0343C141.19 61.0343 141.193 61.071 141.156 61.071C141.337 61.032 141.521 60.9907 141.702 60.9494C141.521 60.9907 141.374 60.993 141.229 61.0343ZM143.85 64.0814C143.428 64.857 142.634 65.2769 141.759 65.332C141.25 65.3802 140.807 65.2058 140.435 64.8868C140.215 64.8157 139.995 64.7124 139.775 64.6069C138.297 63.8359 138.324 61.6791 139.692 60.8094C140.339 60.3941 141.062 60.1601 141.87 60.2519C142.746 60.3436 143.448 60.8393 143.868 61.6332C143.983 61.8121 144.095 61.9934 144.173 62.2114C144.368 62.7919 144.272 63.4504 143.955 63.969C143.882 64.0057 143.884 64.0424 143.85 64.0814ZM98.6175 61.2982C98.5555 60.0958 97.6216 59.1298 96.3826 59.1551C96.1623 59.1597 95.9443 59.1665 95.7631 59.1688C94.5951 59.1941 93.5236 60.2404 93.6223 61.4083C93.6842 62.6106 94.6158 63.5766 95.8571 63.5514C96.0751 63.5468 96.2954 63.5399 96.4767 63.5376C97.6079 63.5124 98.6794 62.4661 98.6175 61.2982ZM110.411 16.2633C110.43 17.0664 110.882 17.7134 111.547 18.1379C112.398 18.6657 113.491 18.606 114.321 18.1517C115.232 18.0576 116.058 17.4908 116.256 16.5386C116.487 15.4372 115.875 14.0995 114.665 13.8678C113.53 13.6383 112.511 13.8081 111.465 14.3404C110.781 14.6846 110.395 15.4969 110.411 16.2633ZM80.8807 18.9479C81.1193 18.1402 80.8738 17.0113 80.1717 16.479C79.6875 16.1256 79.2447 15.8411 78.5884 15.8571C78.4416 15.8594 78.2947 15.8617 78.1502 15.903C77.6775 15.9489 77.1704 16.1784 76.7781 16.5524C75.2774 18.0094 76.4362 20.9074 78.5471 20.7514C79.6761 20.6527 80.5732 19.9781 80.8807 18.9479ZM53.1237 37.8847C53.1214 37.7746 53.1191 37.6667 53.1168 37.5566C53.0915 36.3887 52.0452 35.3148 50.8796 35.4135C49.6773 35.4754 48.7136 36.4093 48.7388 37.653C48.7411 37.7608 48.7434 37.8709 48.7457 37.9811C48.7709 39.149 49.8172 40.2205 50.9829 40.1242C52.1852 40.0599 53.1489 39.126 53.1237 37.8847ZM60.8149 56.0552C61.5974 55.2337 61.641 53.7354 60.7461 52.9506C59.8535 52.1682 58.5043 52.1246 57.6462 53.0195C57.5383 53.1296 57.4328 53.242 57.3273 53.3545C56.5425 54.1759 56.4989 55.672 57.3938 56.459C58.2864 57.2414 59.6356 57.285 60.4937 56.3902C60.6016 56.2777 60.7071 56.1676 60.8149 56.0552ZM62.1068 105.555C62.0792 104.351 61.3656 103.38 60.3698 102.965C60.0738 102.788 59.7067 102.685 59.3442 102.728C59.016 102.738 58.7269 102.818 58.4378 102.969C58.0753 103.123 57.7517 103.311 57.4305 103.648C56.9326 104.206 56.6917 104.943 56.7077 105.672C56.7031 107.171 57.9743 108.492 59.5048 108.46C61.0008 108.391 62.1022 107.054 62.1068 105.555ZM77.2484 34.8789C77.1498 35.3928 77.237 36.0124 77.5031 36.4804C77.4756 36.9187 77.5949 37.3547 77.8198 37.7149C78.4232 38.6167 79.8596 39.2041 80.8302 38.4537C81.3304 38.0774 81.6884 37.7034 81.8949 37.116C82.1014 36.563 82.1587 35.9045 82.0004 35.324C81.7251 34.3809 80.9381 33.4471 79.9124 33.2864C78.7789 33.1281 77.5146 33.6673 77.2484 34.8789ZM93.7232 47.6342C94.0743 46.9688 94.1316 46.1657 93.6773 45.4452C92.732 43.9308 90.5407 43.8321 89.476 45.28C88.2737 46.9137 89.6389 49.3299 91.6444 49.2151C92.5897 49.1555 93.4525 48.5176 93.7232 47.6342ZM82.6406 85.0214C83.3267 84.7506 83.8659 84.3743 84.2169 83.7456C84.5336 83.1169 84.6621 82.3483 84.3913 81.6599C84.0036 80.5723 82.8196 79.7577 81.6585 80.1845C80.9725 80.4186 80.3644 81.0541 80.1602 81.7517C80.1258 81.7884 80.1281 81.8251 80.0891 81.8251C79.8091 82.307 79.7128 83.0045 79.9078 83.5093C80.2589 84.5602 81.4842 85.4849 82.6406 85.0214ZM49.5143 75.0746C48.6218 74.2898 47.2703 74.2463 46.4144 75.1411C46.3066 75.2513 46.201 75.3637 46.0932 75.4761C45.3085 76.2976 45.2672 77.7959 46.1597 78.5806C47.0546 79.3631 48.4038 79.4067 49.2597 78.5118C49.3675 78.3994 49.4753 78.2892 49.5809 78.1768C50.3656 77.3554 50.4069 75.8593 49.5143 75.0746ZM66.5008 69.2992C66.4389 68.0969 65.505 67.1309 64.2659 67.1561C64.0457 67.1607 63.8277 67.1676 63.6464 67.1699C62.4785 67.1951 61.4069 68.2414 61.5056 69.4094C61.5676 70.6117 62.4991 71.5777 63.7405 71.5525C63.9585 71.5479 64.1787 71.541 64.36 71.5387C65.4912 71.5135 66.5628 70.4671 66.5008 69.2992ZM109.939 125.777C109.053 125.249 107.961 125.346 107.093 125.839C106.302 126.293 105.634 127.404 105.799 128.351C105.884 128.969 106.006 129.441 106.49 129.905C106.862 130.263 107.525 130.54 108.073 130.529C108.654 130.481 109.234 130.286 109.627 129.838C109.627 129.838 109.661 129.802 109.661 129.765C110.168 129.57 110.597 129.233 110.843 128.79C111.366 127.645 111.013 126.413 109.939 125.777ZM139.997 110.296C138.194 111.248 138.689 113.905 140.417 114.598C141.193 114.908 141.991 114.818 142.677 114.366C143.322 113.949 143.673 113.286 143.877 112.551C144.18 111.448 143.423 110.112 142.287 109.88C141.81 109.782 141.3 109.83 140.904 110.02C140.575 110.064 140.286 110.144 139.997 110.296ZM116.538 98.6418C116.283 98.6487 116.028 98.6533 115.737 98.6601C115.26 98.5959 114.75 98.6074 114.317 98.7634C113.266 99.1145 112.63 100.113 112.8 101.205C112.968 102.263 113.899 103.082 114.994 103.059H115.03C115.767 103.408 116.678 103.35 117.325 102.861C118.158 102.552 118.83 101.698 118.773 100.748C118.713 99.617 117.779 98.6142 116.538 98.6418ZM140.043 80.4186C139.033 80.9509 138.701 82.4905 139.304 83.429C140.022 84.4707 141.229 84.7392 142.312 84.1678C142.53 84.0531 142.746 83.9384 142.927 83.826C143.935 83.2913 144.267 81.7494 143.664 80.8132C142.948 79.7692 141.739 79.503 140.656 80.0744C140.477 80.1891 140.259 80.3038 140.043 80.4186ZM133.963 35.5489C133.862 35.8816 133.758 36.1753 133.655 36.5057C133.313 37.6094 134.109 38.9425 135.245 39.1742C136.454 39.4404 137.572 38.7589 137.911 37.5818C138.012 37.2514 138.116 36.9577 138.219 36.6273C138.558 35.5236 137.765 34.1882 136.629 33.9565C135.417 33.6903 134.302 34.3718 133.963 35.5489ZM84.1688 9.01482C83.0307 8.74636 81.732 9.43243 81.5025 10.6072C81.2708 11.7453 81.8834 13.0096 83.0926 13.2735C83.5332 13.3744 83.937 13.4754 84.3753 13.5764C85.5134 13.8448 86.8121 13.1588 87.0415 11.984C87.271 10.8459 86.6606 9.58157 85.4514 9.31541C85.0109 9.21445 84.5726 9.11578 84.1688 9.01482ZM93.4433 29.5968C93.2161 29.1632 92.9867 28.7662 92.7595 28.3325C92.2272 27.3206 90.6852 26.9535 89.7514 27.596C88.7097 28.3119 88.4435 29.5234 89.0148 30.6064C89.242 31.0378 89.4691 31.437 89.6986 31.8684C90.2309 32.8803 91.7706 33.2497 92.7067 32.6073C93.7485 31.8914 94.0146 30.6799 93.4433 29.5968ZM109.264 40.7965C108.938 40.8034 108.645 40.8102 108.319 40.8171C107.151 40.8424 106.079 41.8887 106.178 43.0543C106.238 44.2589 107.172 45.2249 108.413 45.1974C108.741 45.1905 109.032 45.1836 109.36 45.1767C110.528 45.1515 111.6 44.1052 111.501 42.9396C111.439 41.7717 110.505 40.7689 109.264 40.7965ZM80.2061 107.354C79.972 106.666 79.4122 106.094 78.7146 105.89C78.1548 105.319 77.237 105.08 76.5119 105.317C75.2797 105.746 74.7956 106.849 75.0411 108.052C75.3646 109.651 77.2461 110.596 78.733 110.089C79.8206 109.738 80.5939 108.478 80.2061 107.354ZM93.3079 88.9542C93.4226 89.2801 93.5374 89.5692 93.6544 89.8973C94.0445 90.9849 95.2284 91.7628 96.3872 91.3704C97.4748 90.9826 98.2871 89.7963 97.8603 88.6376C97.7432 88.3095 97.6285 88.0204 97.5115 87.6945C97.1237 86.6069 95.9374 85.8291 94.7787 86.2192C93.6934 86.5725 92.8788 87.7955 93.3079 88.9542ZM120.51 63.0512C120.184 63.0581 119.89 63.065 119.564 63.0719C118.396 63.0971 117.325 64.1434 117.424 65.3113C117.485 66.5137 118.417 67.4797 119.658 67.4544C119.987 67.4452 120.278 67.4407 120.606 67.4338C121.774 67.4085 122.845 66.3622 122.747 65.1943C122.685 64.0287 121.751 63.026 120.51 63.0512ZM65.5073 36.96C65.4775 37.2147 65.4453 37.435 65.3788 37.6575C65.4843 37.4717 65.5142 37.2514 65.5073 36.96ZM61.7144 35.2873C62.0678 34.8077 62.6437 34.3924 63.2609 34.2318C64.4587 33.9496 65.6014 34.5094 65.9937 35.7072C66.3012 36.5401 65.8859 37.5726 65.1677 38.1348C65.0989 38.284 64.991 38.3964 64.8855 38.5432C64.4954 38.9907 63.9149 39.1857 63.3321 39.2362C62.786 39.2821 62.1595 39.0044 61.7511 38.6121C61.3771 38.2541 61.0329 37.6048 61.0582 37.0564C61.189 36.3588 61.3243 35.8449 61.7144 35.2873ZM78.967 60.3C79.4925 59.3019 79.2057 57.8472 78.0997 57.324C77.8771 57.2185 77.6569 57.1152 77.4733 57.0097C76.4408 56.5186 75.0227 56.7688 74.4996 57.877C73.9741 58.8728 74.2609 60.3299 75.3669 60.853C75.5872 60.9586 75.8098 61.0618 75.9933 61.1697C77.0259 61.6561 78.4072 61.4083 78.967 60.3ZM59.055 89.4407C58.3001 88.2521 58.5204 86.5679 59.631 85.6662C60.7782 84.7644 62.4234 84.8746 63.4674 85.875C64.4357 86.8043 64.7593 88.259 64.0916 89.4774C63.9172 89.8101 63.6303 90.0717 63.3068 90.2621C63.0567 90.487 62.7676 90.6751 62.4785 90.7899C61.1775 91.2947 59.7365 90.5214 59.055 89.4407Z" fill="#F0DADF"/>
<path d="M35.4281 66.5044C35.341 65.9193 36.362 65.7885 36.4446 66.3346C36.9861 69.4277 37.5276 72.5207 37.9957 75.6161C38.0829 76.27 36.9563 76.4421 36.8324 75.7881C36.2909 72.7295 35.8962 69.5975 35.4281 66.5044ZM29.8364 72.8695C29.8616 72.3211 30.6991 72.3027 30.6394 72.8534C30.6899 75.1893 30.7404 77.4907 30.7909 79.8265C30.8047 80.4828 29.8203 80.5057 29.8065 79.8472C29.8272 77.509 29.8157 75.2076 29.8364 72.8695ZM23.7191 81.8434C23.7811 81.3295 24.5474 81.2767 24.5566 81.7884C24.5337 82.4079 24.5107 82.993 24.4878 83.6148C24.4625 84.1632 24.513 84.7827 24.3042 85.299C24.2033 85.6294 23.6572 85.7143 23.5746 85.3151C23.2969 84.2619 23.6342 82.9402 23.7191 81.8434ZM17.8153 78.8284C17.2279 78.6219 17.4642 77.6674 18.0493 77.8739C18.343 77.9404 18.639 78.0437 18.9304 78.0735C19.2241 78.14 19.4421 78.1355 19.6303 78.3511C19.7427 78.4934 19.8207 78.7481 19.6417 78.8995C19.1415 79.3103 18.3683 79.0372 17.8153 78.8284ZM21.358 70.6071C20.9152 70.3616 21.1928 69.586 21.6701 69.7237C22.7738 70.1367 23.9073 70.295 25.0086 70.6369C25.5961 70.8067 25.5456 71.7934 24.887 71.7727C23.6824 71.7245 22.4319 71.2037 21.358 70.6071ZM25.5479 63.4665C25.0316 63.2944 25.1968 62.4867 25.8186 62.6221C26.6286 62.8951 27.4363 63.0971 28.2417 63.2623C28.9392 63.4298 29.8501 63.3724 30.4421 63.7992C30.7037 64.0126 30.7106 64.4141 30.348 64.5311C29.6253 64.8019 28.8153 64.4554 28.12 64.2879C27.2366 64.0516 26.3923 63.7762 25.5479 63.4665ZM34.5562 63.3082C29.1732 69.2304 23.8751 75.5564 19.4214 82.1922C19.0337 82.7475 19.9217 83.4221 20.3484 82.9012C25.3574 76.6188 30.1438 70.1596 35.1138 63.8428C35.435 63.4711 34.9119 62.9341 34.5562 63.3082ZM0.236816 58.9371L0.457092 50.5689L4.57808 40.3605L52.7106 54.1484L50.5836 62.1196L0.236816 58.9371Z" fill="#23457B"/>
</svg>
