<svg width="253" height="283" viewBox="0 0 253 283" fill="none" xmlns="http://www.w3.org/2000/svg">
<path d="M186.419 104.909C186.419 104.909 158.086 144.503 131.094 166.664C104.103 188.823 70.0911 190.767 70.0911 190.767L17.2027 180.629C17.2027 180.629 8.82899 188.376 8.859 189.781C8.88785 191.188 36.1531 225.572 36.1531 225.572L81.0245 242.798C81.0245 242.798 119.369 244.946 144.334 233.966C169.298 222.988 189.995 188.338 201.096 168.137C212.196 147.936 215.427 94.0685 215.427 94.0685C215.427 94.0685 199.484 81.0322 197.554 79.9715L186.419 104.909Z" fill="#DFAC35"/>
<path d="M206.636 73.4697C208.909 73.8068 211.226 74.0675 213.545 74.3262L212.38 93.6756L197.595 83.3066L197.582 71.6477C200.413 72.7219 203.508 73.0324 206.636 73.4697ZM204.531 60.5541C202.197 60.23 199.886 59.7639 197.555 59.337L197.556 53.2985L214.614 56.417L214.286 61.6874C211.076 61.1019 207.745 61.0349 204.531 60.5541ZM214.046 65.7262C208.731 65.9581 202.785 64.5107 197.554 62.546L197.541 68.8987C201.043 70.0206 205.217 70.0165 208.624 70.3384C210.335 70.5305 212.031 70.6604 213.765 70.8123L214.046 65.7262Z" fill="#0947A8"/>
<path d="M82.7849 229.279C89.5891 229.063 96.3776 229.263 103.199 228.628C110.018 227.992 115.7 226.41 122.104 224.103C123.847 223.459 125.138 225.878 123.916 227.132C119.418 231.715 111.744 232.147 105.703 232.732C98.0398 233.438 90.1489 233.592 82.5296 232.079C80.8842 231.764 81.2085 229.323 82.7849 229.279ZM69.1752 206.354C70.7011 206.495 72.2046 206.68 73.6891 206.8C74.9397 206.954 76.3267 206.863 77.257 207.799C77.6804 208.194 77.6127 208.905 77.0764 209.198C75.9582 209.868 74.6112 209.5 73.4008 209.369C71.8973 209.185 70.3938 209 68.9135 208.775C67.5561 208.615 67.7946 206.235 69.1752 206.354ZM35.2186 188.335C38.2967 189.547 42.1471 190.326 44.707 192.482C45.9875 193.558 44.6538 195.497 43.1967 195.232C39.906 194.602 36.9208 192.051 34.0679 190.43C32.6924 189.62 33.8124 187.778 35.2186 188.335ZM66.2825 201.396C64.5801 201.477 62.8841 201.347 61.2863 200.95C59.7279 200.572 58.0222 200.172 57.4367 198.513C57.1751 197.727 57.7251 197.016 58.4063 196.75C59.6834 196.273 60.8664 197.139 62.1118 197.501C63.4376 197.91 64.8333 198.194 66.2363 198.27C68.1609 198.365 68.3203 201.287 66.2825 201.396ZM100.228 207.754C97.9842 208.23 95.6724 208.939 93.3817 209.018C91.7451 209.078 91.335 206.609 92.9271 206.148C95.1309 205.543 97.5846 205.553 99.8361 205.347C101.224 205.253 101.598 207.492 100.228 207.754ZM88.949 201.609C87.3619 201.968 85.7782 202.219 84.1996 202.369C82.7058 202.455 80.7875 202.738 79.6573 201.582C78.9524 200.821 79.1584 199.866 79.9128 199.264C81.0394 198.385 82.7842 198.811 84.1056 198.842C85.5943 198.858 87.0417 198.852 88.5156 198.698C90.1576 198.532 90.5994 201.233 88.949 201.609ZM114.326 192.997C112.259 193.84 110.21 194.744 108.184 195.608C106.457 196.315 104.371 197.682 102.482 197.125C101.693 196.905 101.185 195.985 101.655 195.227C102.769 193.486 105.05 193.137 106.897 192.496C109.13 191.746 111.339 191.034 113.507 190.3C115.253 189.656 115.948 192.286 114.326 192.997ZM126.098 196.683C124.379 198.254 122.54 199.754 120.56 201.017C118.991 202.027 117 203.605 115.142 202.8C114.751 202.638 114.52 202.082 114.64 201.669C115.192 199.887 117.219 199.503 118.764 198.643C120.716 197.522 122.545 196.336 124.299 194.894C125.514 193.852 127.358 195.559 126.098 196.683ZM139.688 175.553C137.717 177.092 135.864 178.908 134.099 180.662C132.702 182.033 131.515 184 129.59 184.491C128.615 184.703 127.951 183.965 128.07 183.067C128.364 180.879 130.842 179.194 132.447 177.83C134.354 176.206 136.419 174.88 138.506 173.516C139.755 172.704 140.834 174.634 139.688 175.553ZM153.968 172.336C152.593 173.772 151.194 175.249 149.816 176.683C148.616 177.895 147.62 179.22 145.829 179.464C144.964 179.575 144.453 178.655 144.587 177.926C144.862 176.258 146.436 175.146 147.649 174.103C149.042 172.836 150.433 171.568 151.888 170.283C153.256 169.059 155.301 170.984 153.968 172.336ZM158.093 152.955C156.724 154.769 155.453 156.687 154.104 158.566C152.926 160.22 152.047 161.821 150.147 162.648C149.105 163.088 148.205 161.901 148.389 160.984C148.797 159.071 150.425 157.666 151.714 156.291C153.267 154.632 154.839 153.037 156.353 151.356C157.408 150.118 159.022 151.755 158.093 152.955ZM169.731 149.782C169.103 151.413 168.337 152.809 167.338 154.238C166.492 155.484 165.652 157.107 164.069 157.361C163.351 157.501 162.404 157.086 162.457 156.208C162.517 154.638 163.619 153.801 164.591 152.62C165.666 151.342 166.58 149.972 167.656 148.694C168.425 147.78 170.132 148.666 169.731 149.782ZM177.547 130.396C176.356 133.055 174.88 136.519 172.626 138.382C171.628 139.225 169.885 138.211 170.648 136.921C171.365 135.712 172.39 134.725 173.208 133.625C174.203 132.3 175.115 130.929 175.947 129.516C176.551 128.511 178.008 129.366 177.547 130.396ZM191.169 128.581C190.336 130.099 189.539 131.64 188.665 133.137C187.925 134.386 187.3 135.914 185.932 136.553C185.293 136.843 184.548 136.541 184.537 135.785C184.47 134.254 185.479 133.095 186.283 131.828C187.241 130.377 188.239 128.947 189.239 127.52C190.058 126.418 191.869 127.308 191.169 128.581ZM197.784 99.02C197.135 101.174 196.485 103.331 195.941 105.49C195.473 107.317 195.327 109.43 193.872 110.715C193.263 111.236 192.03 111.146 191.858 110.195C191.531 108.358 192.296 106.962 193.053 105.293C194.02 103.044 194.906 100.753 195.769 98.5019C196.215 97.3021 198.15 97.6719 197.784 99.02ZM203.738 108.333C203.895 107.561 202.689 107.221 202.511 108.032C198.474 125.112 189.65 140.786 178.742 154.411C169.222 166.284 158.283 176.845 147.164 187.254C136.696 197.055 126.205 206.419 112.564 211.484C100.071 216.114 86.4081 217.426 73.292 214.922C58.0906 212.021 45.3372 204.374 33.8764 194.28C32.5789 193.139 30.9171 194.899 32.0411 196.159C43.3131 209.035 60.3992 216.872 77.2246 218.956C90.3574 220.558 103.832 218.714 116.047 213.613C129.864 207.841 140.505 197.813 151.218 187.662C174.449 165.629 197.926 141.004 203.738 108.333Z" fill="#F0DADF"/>
</svg>
