<svg width="211" height="294" viewBox="0 0 211 294" fill="none" xmlns="http://www.w3.org/2000/svg">
<path d="M131.899 5.59019C155.529 -3.87857 190.217 1.05373 204.462 20.2985C222.8 44.9912 190.628 70.6267 200.618 135.335C204.337 159.496 210.993 170.054 209.035 195.2C207.17 218.809 199.102 237.658 192.373 250.069C187.102 257.7 170.743 279.382 140.509 289.09C114.701 297.356 92.993 292.33 83.6596 289.965C74.6544 287.757 31.7221 277.075 10.6753 234.715C-6.13724 200.772 -0.548695 163.637 13.0138 138.903C25.9878 115.2 37.0607 119.705 66.1128 88.9392C107.618 44.8558 102.212 17.4391 131.899 5.59019Z" fill="#DFAC35"/>
<path d="M108.743 51.3817C119.675 27.6317 130.248 27.4546 133.759 25.9598C151.889 18.4494 178.222 24.59 188.316 40.4807C195.029 51.0536 191.628 68.0275 184.79 101.903C180.196 124.788 178.238 123.955 178.55 133.074C179.123 148.923 185.295 156.856 187.811 182.507C188.326 188.064 188.712 191.283 188.54 195.908C187.759 211.715 182.555 224.47 178.196 232.903C173.821 239.278 160.081 257.423 134.748 265.564C113.092 272.512 94.9825 268.252 87.144 266.35C78.6075 264.267 41.5606 255.085 26.0398 220.059C9.5398 182.835 30.7898 146.752 33.1127 142.949C44.5815 124.199 55.6231 123.892 76.9044 100.095C93.269 81.8973 103.066 63.8244 108.743 51.3817Z" fill="#48143A"/>
<path d="M99.5191 125.798C99.5191 125.798 135.727 108.653 146.108 127.673C156.488 146.694 158.509 163.434 158.509 163.434C158.509 163.434 159.04 173.606 156.352 184.163C152.457 199.262 138.79 205.465 134.623 207.538C119.592 214.871 105.243 210.991 98.5139 209.137C91.3003 207.215 80.7326 204.34 73.2483 194.314C66.9097 185.835 66.0764 176.58 65.993 172.444C66.1962 167.699 67.4514 154.33 77.493 141.866C85.3837 131.882 94.9566 127.512 99.5191 125.798Z" fill="#23457B"/>
<path d="M41.8782 122.168C36.8053 123.934 32.7063 127.387 29.3574 131.543C27.7532 133.611 30.8834 135.877 32.1439 133.715C34.6022 129.387 38.3157 126.205 42.4564 123.507C43.0657 123.106 42.6439 121.871 41.8782 122.168ZM35.5761 122.236C40.0814 118.637 45.5241 116.908 50.347 113.767C54.5761 110.97 58.0501 107.533 61.2584 103.653C61.9876 102.788 60.7793 101.47 59.9772 102.382C56.1439 106.72 51.5084 110.34 46.4564 113.174C42.1595 115.512 37.347 116.976 33.748 120.439C32.4459 121.59 34.248 123.252 35.5761 122.236ZM188.352 117.554C190.269 112.455 190.227 106.278 191.097 100.903C191.337 99.5329 189.477 99.0381 189.061 100.361C187.248 105.549 184.602 111.507 184.909 117.137C184.925 119.194 187.607 119.408 188.352 117.554ZM195.592 103.22C196.732 100.095 196.654 96.4027 197.337 93.1579C197.493 92.3298 196.232 91.6788 195.883 92.5225C194.493 95.6371 192.701 99.335 192.899 102.814C192.941 104.512 195.071 104.7 195.592 103.22ZM190.534 93.9027C190.68 94.9965 192.128 95.6319 192.8 94.5069C194.243 92.1475 194.389 89.2569 194.675 86.5329C195.076 83.1475 194.982 80.0069 194.581 76.6006C194.477 75.5746 192.732 75.1111 192.597 76.3194C192.232 79.0902 191.873 81.8611 191.508 84.6267C191.144 87.6475 190.087 90.9131 190.534 93.9027ZM30.2168 239.918C29.2168 238.283 28.3261 236.491 27.6803 234.694C27.1647 233.377 25.2272 233.856 25.5293 235.309C25.9772 237.356 26.5918 239.267 27.5866 241.153C28.4459 242.814 29.5553 244.976 31.2324 245.918C32.1438 246.476 33.6491 245.507 33.2011 244.392C32.5241 242.715 31.1282 241.408 30.2168 239.918ZM20.3626 224.528C20.972 224.809 21.8678 224.491 21.8366 223.674C21.6491 221.564 19.9303 219.611 18.9355 217.726C17.7011 215.345 16.7636 212.793 15.8834 210.252C15.4199 208.944 13.4095 209.47 13.8001 210.819C14.4147 213.413 15.2532 215.877 16.4147 218.304C17.2324 220.387 18.2793 223.47 20.3626 224.528ZM26.3053 241.746C23.4251 238.049 21.2845 233.929 19.3626 229.679C17.597 225.783 16.3366 221.398 13.7636 217.97C13.347 217.424 12.3834 217.543 12.4147 218.361C12.7011 227.345 18.4199 237.215 24.6022 243.47C25.6751 244.569 27.1751 242.913 26.3053 241.746ZM26.5814 181.512C26.8834 182.715 28.2689 182.898 29.1439 182.194C30.3261 181.267 30.4928 179.689 30.847 178.351C31.1959 176.825 31.4616 175.34 31.748 173.793C32.0345 172.502 30.1074 171.554 29.5032 172.882C28.7897 174.377 28.097 175.814 27.4511 177.319C26.8418 178.658 26.123 179.96 26.5814 181.512ZM38.4407 165.049C37.4095 167.512 36.0136 169.944 35.4928 172.611C35.1751 174.273 37.6178 175.606 38.4668 173.84C39.6855 171.361 39.9928 168.575 40.6282 165.944C40.8991 164.705 38.972 163.757 38.4407 165.049ZM32.5449 167.778C33.6386 166.7 33.8678 165.142 34.3157 163.7C34.8053 162.085 35.1803 160.444 35.5553 158.799C35.8418 157.502 33.8678 156.481 33.2636 157.814C32.597 159.382 31.873 160.934 31.3261 162.533C30.7897 164.069 30.0345 165.491 30.347 167.132C30.5657 168.184 31.8782 168.408 32.5449 167.778ZM160.493 237.408C159.196 239.929 157.378 242.309 156.363 244.965C155.691 246.783 158.566 247.924 159.451 246.226C160.774 243.835 161.284 240.981 162.331 238.46C162.883 237.299 161.139 236.148 160.493 237.408ZM159.342 236.106C161.087 232.83 161.133 228.674 161.79 225.049C162.029 223.679 160.17 223.184 159.696 224.491C158.462 227.96 156.389 231.523 156.321 235.299C156.206 236.892 158.534 237.512 159.342 236.106ZM152.967 234.783C153.441 233.476 151.389 232.991 150.93 234.241C149.628 237.507 146.482 240.908 146.279 244.465C146.186 245.746 147.816 246.184 148.644 245.408C150.837 243.496 151.581 239.773 152.383 236.746C152.811 236.549 153.107 236.132 152.956 235.528C152.962 235.278 152.967 235.033 152.967 234.783ZM115.071 66.46C115.456 66.8767 116.04 67.0277 116.524 66.8454C118.269 66.3767 118.394 64.7309 118.753 63.1423C119.113 61.5538 119.639 59.8246 119.561 58.2465C119.467 56.7309 117.545 56.2204 116.706 57.4913C115.857 58.8194 115.436 60.6423 114.977 62.1371C114.571 63.6475 113.847 65.1996 115.071 66.46ZM123.998 57.0017C124.337 58.085 125.529 58.2777 126.326 57.6215C127.524 56.6319 127.67 54.9236 127.883 53.4236C128.165 51.8819 128.337 50.3038 128.451 48.7152C128.529 47.2413 126.128 46.9131 125.857 48.3975C125.566 49.9444 125.18 51.3975 124.722 52.8923C124.29 54.2777 123.587 55.5225 123.998 57.0017ZM121.451 50.9027C122.941 48.1215 123.347 44.4913 124.227 41.4236C124.644 39.8559 122.357 39.309 121.842 40.7881C120.79 43.809 119.019 46.9548 118.659 50.1631C118.508 51.6788 120.805 52.1631 121.451 50.9027ZM165.795 160.392C165.128 152.611 163.201 144.871 159.644 137.882C156.909 132.481 153.206 127.444 148.758 123.335C144.597 119.549 139.566 117.148 135.092 113.84C118.347 111.934 101.008 114.361 86.9303 124.194C69.0918 136.7 58.8574 159.705 61.1647 181.439C61.6959 186.252 63.2116 191.08 65.7741 195.252C69.3366 201.059 75.373 204.345 81.1491 207.689C87.7168 211.559 94.6282 215.08 101.92 217.392C108.123 219.356 116.133 221.554 122.462 219.309C128.753 217.189 135.149 213.283 140.665 209.642C145.93 206.246 150.852 202.262 154.883 197.413C163.316 187.262 166.909 173.517 165.795 160.392ZM151.342 206.502C146.092 211.023 140.196 214.689 134.102 217.924C128.081 221.116 122.368 224.335 115.326 223.892C100.066 222.944 85.8886 215.371 73.6439 206.627C65.0084 200.465 59.748 191.215 58.6543 180.585C56.248 157.58 67.7741 132.986 87.3678 120.694C101.133 112.028 119.42 108.361 135.456 112.007C135.571 112.038 135.748 112.085 135.79 112.158C142.311 113.392 148.034 118.095 152.738 122.648C157.686 127.455 161.587 133.168 164.321 139.502C168.566 149.288 170.628 160.491 169.545 171.106C168.139 184.809 161.805 197.387 151.342 206.502ZM70.0553 174.023C69.9303 172.371 67.9668 171.351 66.6907 172.632C65.5761 173.767 65.0605 175.246 64.5241 176.788C63.9876 178.325 63.4511 179.866 63.3418 181.455C63.2011 183.851 67.0709 185.007 68.0553 182.71C68.6751 181.319 68.9459 179.835 69.2741 178.361C69.6595 176.908 70.1647 175.486 70.0553 174.023ZM85.4303 134.512C85.5189 133.476 84.5605 132.408 83.6282 132.158C82.5241 131.866 81.5084 132.408 80.8939 133.304C79.4928 135.299 78.2428 137.892 78.0293 140.325C77.8939 141.538 78.998 142.767 80.1022 143.059C81.3834 143.398 82.5449 142.773 83.2636 141.72C84.6491 139.783 85.1751 136.871 85.4303 134.512ZM155.889 159.002C157.415 158.658 157.977 157.246 158.508 155.96C159.024 154.72 159.404 153.517 159.748 152.236C160.102 150.903 158.337 149.809 157.373 150.856C156.441 151.793 155.623 152.757 154.79 153.783C153.925 154.924 152.972 156.168 153.462 157.601C153.909 158.72 154.894 159.231 155.889 159.002ZM126.946 206.674C125.607 208.189 124.389 209.731 123.352 211.512C122.571 212.799 123.175 214.517 124.581 215.08C126.05 215.658 127.508 214.861 127.951 213.418C128.534 211.705 129.113 209.991 129.753 208.293C130.347 206.767 127.998 205.523 126.946 206.674ZM110.644 125.898C111.727 126.496 113.368 126.184 113.925 125.028C114.769 123.257 115.498 121.455 116.326 119.746C117.191 117.918 114.8 115.663 113.326 117.455C111.962 119.085 110.649 120.726 109.774 122.611C109.217 123.773 109.456 125.205 110.644 125.898ZM149.019 143.648C150.784 142.627 151.222 140.746 151.831 138.918C152.477 136.97 153.248 134.996 153.529 133.012C153.868 131.049 151.326 129.814 150.165 131.621C149.087 133.33 148.253 135.288 147.337 137.095C146.43 138.851 145.383 140.439 145.909 142.45C146.331 143.679 147.852 144.273 149.019 143.648ZM110.467 201.418C109.477 202.335 109.352 203.736 108.894 204.986C108.472 206.116 107.795 207.246 107.529 208.481C107.149 210.377 109.238 211.429 110.654 210.314C111.764 209.424 112.415 207.913 112.962 206.564C113.493 205.273 114.29 203.679 113.727 202.283C113.222 200.903 111.623 200.351 110.467 201.418ZM93.0241 198.642C91.972 198.361 91.0449 199.049 90.6647 200.007C90.0397 201.648 89.722 203.309 89.5084 205.054C89.2116 207.095 92.1334 208.059 92.7064 205.908C93.1595 204.22 93.7636 202.637 94.3886 200.996C94.7116 200.028 93.9511 198.892 93.0241 198.642ZM77.3105 184.679C76.0709 187.215 73.7064 190.257 74.1699 193.184C74.3678 194.549 76.3418 195.319 77.4772 194.564C80.0918 192.705 80.2116 188.502 80.5084 185.528C80.7064 183.84 78.0189 183.184 77.3105 184.679ZM81.123 168.002C81.9876 166.174 79.5084 164.705 78.373 166.398C77.4511 167.767 76.5657 169.215 75.8574 170.71C75.2376 172.106 74.3834 173.684 74.9147 175.194C75.3314 176.429 76.6855 176.726 77.7011 175.934C78.8157 175.049 79.0397 173.486 79.4564 172.168C79.8834 170.788 80.4459 169.377 81.123 168.002ZM95.472 190.137C95.8939 189.252 96.2584 188.351 96.6647 187.528C97.0293 186.627 97.1803 185.606 97.6595 184.736C98.6334 182.939 95.8834 181.34 94.9095 183.132C94.4303 184.002 93.7584 184.632 93.1647 185.47C92.6439 186.267 92.1178 187.064 91.6386 187.929C90.2428 190.361 94.2376 192.674 95.472 190.137ZM110.993 185.174C108.264 187.002 106.68 189.689 105.607 192.773C104.691 195.517 109.159 197.455 110.326 194.71C111.43 192.2 112.665 189.668 113.493 187.023C113.889 185.757 112.201 184.371 110.993 185.174ZM134.113 195.189C133.607 196.611 132.889 197.913 132.227 199.236C131.805 200.116 131.863 201.069 132.534 201.809C132.779 202.064 133.144 202.34 133.508 202.377C134.409 202.496 135.462 202.278 135.889 201.392C136.878 199.538 137.258 197.648 137.321 195.543C137.451 193.648 134.738 193.549 134.113 195.189ZM147.863 188.694C146.951 190.007 146.04 191.325 145.29 192.746C144.311 194.543 147.18 196.174 148.04 194.345C148.764 192.793 149.326 191.142 149.936 189.559C150.352 188.236 148.503 187.684 147.863 188.694ZM123.175 186.918C121.659 189.319 120.014 191.996 119.691 194.84C119.456 196.892 122.649 198.241 123.962 196.601C125.727 194.392 126.436 191.278 127.029 188.569C127.534 186.21 124.462 184.898 123.175 186.918ZM104.915 172.215C104.347 174.121 103.326 175.845 102.717 177.674C102.316 178.939 103.071 180.319 104.258 180.762C105.55 181.293 106.743 180.804 107.529 179.705C108.904 177.825 109.206 175.043 109.201 172.736C109.238 170.252 105.665 169.861 104.915 172.215ZM87.8001 168.658C86.4147 171.278 84.222 174.371 84.6439 177.47C84.9251 179.226 87.2689 179.543 88.4251 178.481C90.4407 176.523 90.5449 172.627 90.9928 170.007C91.2949 168.153 88.8105 166.746 87.8001 168.658ZM75.2584 152.611C74.0918 152.299 73.2793 153.017 72.8261 154.017C72.1439 155.642 71.3157 157.356 70.9251 159.054C70.7011 160.121 71.1543 161.236 72.2272 161.648C73.1282 162.012 74.5032 161.752 74.9564 160.752C75.7584 158.908 76.1543 156.96 76.6074 155.023C76.8834 153.976 76.3053 152.887 75.2584 152.611ZM98.7793 162.981C99.9147 161.288 100.373 159.106 100.899 157.132C101.482 155.168 98.7949 154.262 97.7064 155.783C96.5553 157.533 95.2272 159.231 94.6439 161.2C93.9043 163.741 97.4147 165.049 98.7793 162.981ZM87.9407 146.142C87.1022 147.413 86.3418 148.642 85.6178 149.95C84.7949 151.413 83.972 152.871 84.9095 154.491C85.4199 155.377 86.4095 155.637 87.373 155.523C89.2011 155.2 89.7272 153.47 90.2584 151.934C90.7636 150.507 91.2532 149.142 91.7376 147.778C92.4355 145.408 89.1803 144.293 87.9407 146.142ZM116.639 174.028C116.436 175.033 116.784 176.059 117.696 176.616C118.503 177.08 119.821 177.054 120.456 176.293C121.769 174.648 122.154 172.507 122.258 170.476C122.425 167.97 118.217 167.408 117.857 169.929C117.618 171.299 116.894 172.601 116.639 174.028ZM141.956 179.523C141.238 180.825 140.592 182.085 139.811 183.377C139.019 184.72 138.243 185.762 138.873 187.361C139.118 187.861 139.784 188.163 140.337 188.189C142.165 188.111 142.92 186.444 143.508 184.918C144.102 183.398 144.503 181.882 144.748 180.267C144.904 178.752 142.607 178.262 141.956 179.523ZM116.623 158.887C117.764 157.632 118.258 156.017 119.081 154.559C120.061 152.762 117.623 150.679 116.196 152.293C115.04 153.606 113.628 155.163 113.279 156.939C113.107 157.825 113.425 158.72 114.238 159.184C114.93 159.621 116.014 159.533 116.623 158.887ZM135.795 166.418C136.576 163.7 132.696 162.851 131.665 165.319C131.102 166.731 130.524 168.194 129.962 169.601C129.373 171.127 128.665 172.371 129.561 173.918C129.946 174.58 130.972 175.163 131.753 174.814C133.561 174.111 133.842 172.814 134.363 171.085C134.837 169.528 135.316 167.976 135.795 166.418ZM148.915 164.616C147.956 167.038 146.654 169.371 145.696 171.799C145.482 172.361 145.717 173.361 146.238 173.746C146.54 174.012 146.8 174.205 147.149 174.299C147.962 174.517 148.988 174.168 149.394 173.34C150.717 170.705 151.232 167.851 151.566 164.95C151.753 163.319 149.389 163.309 148.915 164.616ZM112.363 144.236C112.988 142.595 110.488 141.679 109.623 143.069C108.201 145.371 106.779 147.668 105.951 150.314C105.732 151.127 106.123 152.231 106.894 152.621C107.055 152.726 107.212 152.83 107.399 152.819C108.597 153.012 109.477 152.496 109.904 151.366C110.889 149.075 111.425 146.601 112.363 144.236ZM101.128 141.741C103.149 139.538 103.878 135.871 104.639 133.023C105.071 131.392 102.863 130.554 101.998 131.944C100.399 134.444 98.2949 137.434 97.9824 140.47C97.8105 142.043 100.149 142.851 101.128 141.741ZM132.238 150.523C132.904 148.955 133.139 147.148 133.571 145.517C134.133 143.179 130.8 142.351 129.967 144.559C129.357 146.142 128.545 147.793 128.17 149.439C127.93 150.559 128.555 151.72 129.665 152.017C130.883 152.34 131.769 151.58 132.238 150.523ZM139.831 158.273C143.394 159.845 143.842 151.616 144.133 149.825C144.311 148.689 142.79 147.851 142.175 148.991C141.003 151.299 139.373 153.668 138.941 156.231C138.873 156.96 139.045 157.939 139.831 158.273ZM137.54 135.049C138.909 133.174 139.248 130.523 139.467 128.278C139.665 126.148 136.524 125.996 135.915 127.825C135.227 129.7 134.238 131.554 133.784 133.491C133.279 135.845 136.243 136.887 137.54 135.049ZM120.201 134.918C119.451 132.351 121.686 129.335 123.29 127.517C124.878 125.762 127.269 128.017 126.394 129.903C125.972 130.788 125.592 131.746 125.269 132.72C124.899 133.866 124.722 135.002 123.863 135.892C122.722 137.148 120.659 136.476 120.201 134.918Z" fill="#F0DADF"/>
</svg>
