<svg width="109" height="131" viewBox="0 0 109 131" fill="none" xmlns="http://www.w3.org/2000/svg">
<path d="M8.25445 19.1132L6.35327 10.789C6.35327 10.789 8.3396 2.88713 17.7499 0.346436C17.7499 0.346436 19.7449 10.0522 17.305 12.3218C14.8651 14.5914 10.9203 20.8249 10.9203 20.8249L8.25445 19.1132Z" fill="#E1AA27"/>
<path d="M87.8344 61.2015C87.4695 62.2859 85.5718 62.63 84.9027 61.9175C84.4874 61.4535 84.6038 60.6229 84.868 60.1224C85.1374 59.5819 85.7664 58.9406 86.5432 59.0327C87.4869 59.1683 88.1247 60.3778 87.8344 61.2015ZM70.922 72.1046C69.1112 73.0587 66.6939 71.3626 66.5896 70.0575C66.4645 68.3631 70.2633 66.2882 71.6067 67.2718C72.6702 68.0607 72.7762 71.1193 70.922 72.1046ZM84.6316 95.2229C84.2667 96.3073 82.369 96.6514 81.6999 95.9388C81.2829 95.4749 81.401 94.6442 81.6652 94.1419C81.9345 93.6032 82.5654 92.962 83.3404 93.0541C84.2841 93.1896 84.9219 94.3991 84.6316 95.2229ZM32.537 30.6889C32.1703 31.7733 30.2726 32.1174 29.6036 31.4049C29.1882 30.9409 29.3064 30.1102 29.5688 29.608C29.8382 29.0692 30.469 28.428 31.2458 28.5201C32.1894 28.6556 32.8046 29.8808 32.537 30.6889ZM73.911 93.1444C73.1516 93.6136 71.8569 93.7735 71.1931 93.0245C70.4597 92.2251 70.8733 90.8019 71.6102 90.0789C72.4895 89.1839 74.17 89.0015 74.8668 89.7957C75.5967 90.6315 75.0528 92.4232 73.911 93.1444ZM49.9326 66.9346C49.26 68.1476 47.5187 68.881 46.6446 68.2536C45.7323 67.6228 45.8661 65.7338 46.7645 64.6876C47.411 63.9334 48.7526 63.2974 49.6163 63.8639C50.5113 64.4756 50.4487 66.0066 49.9326 66.9346ZM37.5141 62.0114C35.705 62.9654 33.286 61.2711 33.1835 59.9642C33.0566 58.2716 36.8555 56.1966 38.2006 57.1785C39.2415 57.9848 39.3684 61.026 37.5141 62.0114ZM59.8903 95.1968C58.0795 96.1509 55.6604 94.4548 55.5579 93.1496C55.431 91.4553 59.2317 89.3803 60.575 90.3639C61.616 91.1685 61.7428 94.2097 59.8903 95.1968ZM68.7497 116.117C68.3848 117.201 66.4871 117.543 65.818 116.833C65.4009 116.369 65.5191 115.538 65.7832 115.036C66.0526 114.495 66.6817 113.854 67.4585 113.946C68.4021 114.082 69.0191 115.307 68.7497 116.117ZM19.5155 59.6584C19.0984 59.1961 19.2166 58.3637 19.4808 57.8632C19.7501 57.3245 20.3792 56.6832 21.156 56.7753C22.0996 56.9109 22.7374 58.1187 22.4472 58.9441C22.0805 60.0285 20.1672 60.35 19.5155 59.6584ZM37.9225 65.6538C38.8001 64.7589 40.4823 64.5764 41.1792 65.3706C41.9247 66.2273 41.3825 68.019 40.2234 68.7194C39.464 69.1886 38.1693 69.3502 37.5054 68.5977C36.7877 67.8209 37.2013 66.3976 37.9225 65.6538ZM45.8279 60.5672C45.4612 61.6499 43.5652 61.994 42.8944 61.2815C42.4791 60.8175 42.5972 59.9868 42.8614 59.4863C43.1308 58.9459 43.7598 58.3046 44.5366 58.3967C45.4629 58.5114 46.1007 59.7192 45.8279 60.5672ZM24.649 35.7981C25.5266 34.9031 27.2088 34.7206 27.904 35.5148C28.6495 36.3716 28.1073 38.1633 26.9482 38.8636C26.1887 39.3328 24.8958 39.4944 24.2302 38.7437C23.4969 37.9443 23.8896 36.5367 24.649 35.7981ZM41.24 36.9468C42.1836 37.0823 42.8197 38.2901 42.5312 39.1156C42.1663 40.2 40.2686 40.5441 39.5978 39.8316C39.1824 39.3676 39.3006 38.5369 39.5647 38.0347C39.8706 37.5012 40.5014 36.8599 41.24 36.9468ZM45.9113 107.137C44.1005 108.091 41.6831 106.395 41.5789 105.09C41.4538 103.396 45.2526 101.321 46.596 102.303C47.6369 103.107 47.7429 106.166 45.9113 107.137ZM34.2818 97.4733C34.1566 95.779 37.9538 93.7058 39.2989 94.6876C40.345 95.454 40.4893 98.5178 38.6194 99.4823C36.8033 100.475 34.3634 98.7941 34.2818 97.4733ZM44.8147 114.742C44.0553 115.211 42.7606 115.371 42.0967 114.622C41.3634 113.823 41.7753 112.399 42.5138 111.677C43.3932 110.782 45.0736 110.599 45.7705 111.393C46.516 112.25 45.9721 114.042 44.8147 114.742ZM36.5392 115.788C35.7798 116.257 34.4851 116.417 33.8212 115.668C33.0879 114.869 33.5015 113.446 34.2383 112.723C35.1159 111.828 36.7981 111.645 37.495 112.439C38.2405 113.298 37.6983 115.088 36.5392 115.788ZM89.6244 51.4228C81.2134 46.7672 65.175 42.944 53.8079 31.8359C42.4408 20.726 33.0236 17.1982 33.0236 17.1982C33.0236 17.1982 20.1655 13.6183 8.94261 25.8195C-2.28024 38.019 8.60721 49.5217 8.60721 49.5217L19.731 65.3341C19.731 65.3341 23.8409 80.3715 25.5649 89.6723C27.2523 98.9696 26.1992 102.053 29.5219 113.529C32.8463 125.006 53.0329 130.271 53.0329 130.271C53.0329 130.271 66.7894 127.508 74.382 124.072C81.9745 120.635 95.1159 106.995 101.386 102.291C107.658 97.5846 109.564 76.5152 108.841 71.0168C108.101 65.4974 98.0146 56.0941 89.6244 51.4228Z" fill="#23457B"/>
<path d="M80.2611 96.1752C80.4557 96.9746 80.8919 97.5567 81.3576 98.2206C81.7573 98.7975 82.6453 98.7715 83.0503 98.2327C83.476 97.6766 83.2414 96.872 82.628 96.5922C82.1205 96.3646 81.5974 95.8467 81.2082 95.4627C81.024 95.2645 80.6521 95.3063 80.4592 95.4522C80.2385 95.6521 80.1794 95.9319 80.2611 96.1752ZM76.4048 91.5769C76.9522 92.2129 77.3346 93.0384 77.9932 93.558C78.8465 94.1993 80.0629 93.0853 79.3609 92.1938C78.8204 91.5195 77.9845 91.1685 77.3328 90.6107C76.7767 90.1849 75.9096 91.0051 76.4048 91.5769ZM74.5106 94.7519C74.9503 95.7407 75.5655 96.6948 76.1268 97.6228C76.8289 98.7836 78.704 97.3777 77.7864 96.3785C77.0513 95.5808 76.3284 94.705 75.4803 94.0255C75.0007 93.6084 74.2465 94.1749 74.5106 94.7519ZM69.205 93.4711C69.7073 94.4095 70.2095 95.348 70.7343 96.2707C71.3982 97.4264 73.2941 96.0031 72.3922 95.0265C71.6745 94.2497 70.8925 93.5215 70.1313 92.776C69.6882 92.3659 68.9131 92.9463 69.205 93.4711ZM70.0305 88.8694C70.3711 90.1328 71.3165 91.3475 72.0724 92.3989C72.8492 93.4364 74.4967 92.1313 73.666 91.2033C72.7641 90.2249 71.9716 89.0345 70.9568 88.1742C70.4372 87.7537 69.8724 88.3463 70.0305 88.8694ZM48.4051 70.6448C48.5788 71.3243 49.0533 71.9117 49.3939 72.5008C49.7884 73.116 50.0907 73.8337 50.8085 74.0718C51.5262 74.3099 52.1501 73.8407 52.1223 73.0847C52.0788 72.3079 51.4897 71.8387 51.0101 71.2878C50.5461 70.7595 50.1081 70.1774 49.5034 69.8194C48.883 69.4423 48.2156 69.9428 48.4051 70.6448ZM37.2813 70.5892C37.7036 71.8248 38.6333 73.017 39.5439 73.9189C39.9871 74.329 40.7639 74.1518 41.1132 73.7208C41.5163 73.1803 41.3495 72.5981 40.9116 72.1498C40.1018 71.3417 39.3041 70.4554 38.4734 69.6612C37.8947 69.1173 37.0501 69.9202 37.2813 70.5892ZM44.1092 72.148C44.4341 72.579 44.7574 73.01 45.0598 73.4584C45.3621 73.9067 45.6541 74.4298 46.1129 74.727C46.8514 75.2188 48.0853 74.5289 47.6213 73.5957C47.3502 73.0552 46.8862 72.6624 46.4448 72.2506C46.0173 71.8613 45.6298 71.479 45.2075 71.0532C44.5662 70.4207 43.5687 71.472 44.1092 72.148ZM43.6174 65.4314C44.2169 66.3646 44.7244 67.4003 45.4316 68.2536C46.2032 69.192 47.6248 68.125 46.9192 67.1379C46.2971 66.2203 45.423 65.4592 44.7157 64.6059C44.1544 63.9473 43.1412 64.7067 43.6174 65.4314ZM39.4449 65.9301C40.0427 66.8633 40.6161 67.8504 41.2591 68.7523C42.0359 69.7881 43.6904 68.582 42.8753 67.5393C42.2115 66.6548 41.4016 65.845 40.6718 65.0091C40.0357 64.2045 38.894 65.0612 39.4449 65.9301ZM102.768 84.245C103.141 84.8776 103.503 85.5849 104.005 86.1184C104.425 86.5442 105.004 86.6867 105.472 86.2331C105.897 85.8125 105.859 85.133 105.373 84.7542C104.816 84.3284 104.311 83.967 103.888 83.4057C103.663 83.1033 103.193 83.0164 102.87 83.2579C102.568 83.4856 102.585 83.9114 102.768 84.245ZM101.396 88.0752C101.944 88.9823 102.463 90.6176 103.654 90.7688C104.771 90.9096 105.367 89.1457 104.208 88.7668C104.078 88.7303 104.078 88.7303 104.208 88.7668C104.158 88.7025 104.127 88.6591 104.078 88.5948C103.97 88.4054 103.765 88.2212 103.598 88.0439C103.301 87.6946 102.976 87.3957 102.674 87.0846C102.01 86.3321 100.868 87.1889 101.396 88.0752ZM96.8416 87.2097C97.3369 88.0508 97.7922 88.925 98.4334 89.6913C99.4553 90.9165 101.172 89.2552 99.9801 88.1603C99.3319 87.5677 98.6263 86.9838 98.0685 86.287C97.4099 85.4997 96.3428 86.3669 96.8416 87.2097ZM98.6316 83.1311C98.8158 84.0052 99.2537 84.8585 99.8098 85.5553C100.576 86.532 102.154 85.3138 101.339 84.4066C100.795 83.7706 100.227 83.1502 99.6117 82.5993C99.2398 82.2378 98.529 82.6358 98.6316 83.1311ZM6.29419 39.7516C5.68074 40.6831 6.35501 42.0334 6.85203 42.8745C6.99279 43.1073 7.37685 43.2585 7.63405 43.1994C7.96945 43.1508 8.16235 43.0048 8.32396 42.6816C8.45778 42.4122 8.39348 42.0559 8.23186 41.8405C8.00594 41.5381 7.82173 41.2027 7.68097 40.8377C7.56106 40.4537 7.52283 40.0436 7.26042 39.736C7.00496 39.4874 6.51489 39.4162 6.29419 39.7516ZM10.2165 42.6451C10.5293 43.2881 10.823 43.945 11.2174 44.5601C11.9074 45.6619 13.6956 44.3203 12.8336 43.3471C12.3522 42.798 11.7805 42.3496 11.273 41.8526C10.7934 41.4373 9.93145 42.0838 10.2165 42.6451ZM12.6372 37.6575C12.5642 38.9939 12.7485 40.5423 13.7199 41.5676C14.0223 41.8822 14.4428 42.0386 14.8425 41.8074C15.1762 41.6232 15.4612 41.1054 15.2457 40.7283C14.7105 39.7464 14.0675 38.8445 13.9197 37.7062C13.8346 36.9624 12.6859 36.912 12.6372 37.6575ZM9.22589 34.1437C8.11716 35.5826 8.14149 37.5897 8.93568 39.1868C9.5891 40.551 11.5945 39.4527 10.7343 38.1737C10.001 37.1049 9.99401 35.7946 10.2078 34.5538C10.3033 34.0081 9.5387 33.7057 9.22589 34.1437ZM40.8177 118.079C41.2922 119.071 41.9352 119.973 42.8197 120.659C44.0344 121.603 45.4942 119.733 44.2638 118.767C43.5357 118.199 42.7589 117.703 41.9595 117.222C41.4155 116.855 40.4771 117.356 40.8177 118.079ZM42.533 109.367C43.2837 111.266 44.5315 113.065 45.9895 114.467C46.8532 115.305 48.2643 113.908 47.4927 112.969C46.2728 111.524 45.0146 110.071 43.7303 108.672C43.2489 108.123 42.2202 108.59 42.533 109.367ZM38.8523 111.421C39.3979 112.598 39.9175 113.692 40.7378 114.697C41.6727 115.851 43.5148 114.401 42.5486 113.338C41.7648 112.474 40.9064 111.6 40.2373 110.618C39.7629 109.895 38.4908 110.578 38.8523 111.421ZM32.9298 109.588C33.4077 110.716 33.6405 111.923 34.1584 113.02C34.758 114.222 36.673 113.496 36.1152 112.26C35.6008 111.127 34.8136 110.166 34.2575 109.066C33.8734 108.241 32.5909 108.729 32.9298 109.588ZM35.8267 104.783C36.421 106.161 36.859 107.686 37.6636 108.939C38.3118 109.937 39.8689 109.004 39.4414 107.942C38.9061 106.555 37.9086 105.314 37.1631 104.051C36.6869 103.328 35.4913 104.023 35.8267 104.783ZM38.0094 99.0287C38.2475 99.6612 38.4248 100.302 38.6038 100.944C38.6802 101.225 38.7549 101.505 38.8106 101.802C38.8418 101.981 38.8905 102.181 38.9235 102.358C38.9513 102.709 38.9895 102.715 39.0156 102.39C39.1929 102.225 39.3719 102.056 39.5317 101.868C39.5317 101.868 39.5317 101.868 39.5109 101.884C39.8724 102.051 40.2547 102.204 40.6161 102.369C40.4493 102.058 40.2773 101.917 39.9419 101.83C39.6239 101.764 39.311 101.933 39.1442 102.158C39.0035 102.331 38.9027 102.643 38.9461 102.881C39.1303 103.756 40.1435 104.074 40.7413 103.389C41.3617 102.689 40.8316 101.668 40.5501 100.935C40.1991 100.017 39.7403 99.1816 39.2433 98.3387C38.8418 97.6262 37.7435 98.3162 38.0094 99.0287ZM31.2649 99.6021C31.3084 100.243 31.3362 100.866 31.4179 101.512C31.4822 102.138 31.4839 102.812 31.8506 103.347C32.2781 104.004 33.1609 103.611 33.3277 102.98C33.472 102.365 33.2026 101.691 33.034 101.109C32.8724 100.488 32.6656 99.8993 32.5196 99.3015C32.3146 98.5786 31.2093 98.9001 31.2649 99.6021ZM32.7369 95.5947C32.9385 97.0302 33.2043 98.417 33.7657 99.7481C34.2853 100.98 36.2247 100.198 35.6842 98.9835C35.1281 97.7479 34.572 96.514 34.1984 95.2072C33.9864 94.3869 32.6239 94.7693 32.7369 95.5947ZM66.216 47.8325C66.8416 48.8474 67.5333 49.8118 68.397 50.6495C69.3423 51.5948 70.7639 49.8518 69.6934 48.9673C68.8523 48.2495 67.9781 47.6222 67.1805 46.8714C66.5636 46.3223 65.858 47.2225 66.216 47.8325ZM66.4436 44.8591C66.1586 44.7044 66.5896 45.0554 66.6383 45.1197C66.8051 45.297 66.9893 45.4968 67.1561 45.6741C67.4915 46.0321 67.8478 46.371 68.2249 46.6959C69.2033 47.5475 70.5414 45.834 69.4744 45.0832C69 44.7652 68.5412 44.4663 68.0598 44.1865C67.6671 43.9762 67.2674 43.6686 66.8086 43.6408C66.0439 43.6078 65.8389 44.5045 66.4436 44.8591ZM59.4628 46.4196C59.8851 46.9809 60.3004 47.5805 60.7853 48.0931C61.2337 48.6006 61.7255 49.2106 62.3615 49.4747C63.074 49.751 63.8873 49.0385 63.5901 48.2826C63.0879 47.0748 61.5013 46.1728 60.4499 45.4447C59.8173 45.0068 58.978 45.7731 59.4628 46.4196ZM59.8 42.5582C60.5229 43.2968 61.0998 44.1118 61.7376 44.9164C62.5092 45.8566 64.0402 44.7079 63.2461 43.7851C62.5162 42.9475 61.6525 42.2454 60.7418 41.6145C60.1701 41.1662 59.2265 41.976 59.8 42.5582ZM53.2153 41.8631C53.7384 42.7858 54.6838 44.4037 55.8655 44.362C56.194 44.3516 56.4998 43.9536 56.4303 43.6356C56.3052 43.0187 55.8794 42.765 55.4363 42.3549C54.9931 41.9447 54.6108 41.5242 54.2546 41.0498C53.7315 40.3963 52.8156 41.1505 53.2153 41.8631ZM52.8104 37.2404C53.907 38.3405 54.8506 39.5552 56.0393 40.5545C56.9829 41.3643 58.1629 39.8385 57.2175 39.0287C56.0306 38.0294 54.7081 37.2995 53.4291 36.4028C52.8852 36.0379 52.3586 36.7695 52.8104 37.2404Z" fill="#DFAC35"/>
<path d="M17.7899 1.5664C16.3041 4.29999 15.0616 7.08745 13.8903 9.92532C14.429 9.78977 15.0059 9.66117 15.5447 9.52735C16.2242 9.35531 16.9141 8.97125 17.6248 8.9782C18.0506 8.96082 18.3217 9.50129 17.9568 9.77586C17.3954 10.1964 16.6291 10.2989 15.9513 10.471C15.1537 10.6639 14.3612 10.8203 13.5305 10.8359C12.2654 13.9101 11.1115 17.0382 9.87937 20.1559C9.73514 20.5017 9.17903 20.3435 9.24855 19.9873C9.7473 17.6899 10.4181 15.3977 11.2366 13.1646C9.98191 11.1366 8.99309 8.60457 8.70461 6.29153C8.62814 5.74064 9.46925 5.51473 9.64303 6.0604C10.0323 7.25255 10.26 8.49856 10.6492 9.69071C10.936 10.5214 11.2662 11.3208 11.5894 12.1567C12.1611 10.716 12.7468 9.2997 13.4071 7.89033C13.2195 7.3238 13.176 6.68254 13.0613 6.12644C12.8493 5.03683 12.639 3.94721 12.4635 2.86281C12.3714 2.29107 13.2733 2.18854 13.3654 2.76028C13.5375 3.84468 13.7286 4.94994 13.9024 6.03607C13.9285 6.25156 13.9772 6.45141 14.005 6.6669C14.8878 4.79006 15.8401 2.96187 16.8029 1.19277C17.1087 0.525445 18.1288 0.940784 17.7899 1.5664Z" fill="#5D0746"/>
<path d="M17.2599 25.0097L15.543 27.6147L0.432617 14.3882L3.6389 12.6903L17.2599 25.0097Z" fill="#5D0746"/>
</svg>
