<svg width="186" height="221" viewBox="0 0 186 221" fill="none" xmlns="http://www.w3.org/2000/svg">
<path d="M146.097 79.6051C161.604 102.43 157.545 127.335 155.32 141.073C153.689 151.044 148.62 182.221 120.799 203.418C114.361 208.328 94.8363 222.756 67.1459 220.823C62.6973 220.506 29.0447 217.635 10.474 188.561C-7.90465 159.833 3.24609 128.348 6.28974 119.743C15.6432 93.257 35.0179 79.3686 47.3066 70.5187C62.7668 59.4431 77.4815 48.8376 98.058 50.2287C126.934 52.1845 143.782 76.2109 146.097 79.6051Z" fill="#DFAC35"/>
<path d="M142.163 79.4827C142.163 79.4827 104.156 67.3526 99.3766 53.3697C94.597 39.3868 93.0612 18.1759 107.567 0.85437C107.567 0.85437 128.322 21.3224 120.023 39.5592C120.023 39.5592 137.684 7.62327 166.935 3.89801C166.935 3.89801 169.636 42.5417 142.497 54.0068C142.497 54.0068 169.698 41.2007 185.711 54.5883C185.736 54.5465 163.46 88.0683 142.163 79.4827Z" fill="#48143A"/>
<path d="M90.026 193.163C86.7904 193.689 83.6577 194.905 80.7865 196.452C80.6864 193.753 80.6113 191.015 80.8811 188.367C81.0592 186.642 78.1602 186.222 77.8737 187.941C77.1169 192.072 76.363 196.093 76.4325 200.372C76.4659 201.938 78.291 203.379 79.7989 202.391C83.3962 200.021 87.0435 198.711 91.1611 197.57C93.9571 196.724 92.8832 192.698 90.026 193.163ZM61.1837 176.442C59.9457 174.211 57.3444 175.975 55.8949 176.768C53.9836 177.856 52.0723 178.946 50.1582 180.034C49.5795 177.28 49.3346 174.439 49.2873 171.66C49.2512 169.231 45.665 169.201 45.5204 171.635C45.2088 175.978 45.6456 180.02 46.2854 184.302C46.4941 185.86 48.5556 186.525 49.7798 185.824C52.4896 184.355 55.1437 182.794 57.7979 181.233C59.3058 180.246 62.483 178.768 61.1837 176.442ZM20.459 163.6C20.459 163.6 20.4173 163.575 20.459 163.6C20.4757 163.954 20.4757 163.954 20.459 163.6ZM30.9699 160.963C28.4604 162.665 25.6477 164.018 23.0019 165.47C21.5524 166.263 19.5326 167.915 17.7798 166.925C16.0104 165.862 16.3748 163.158 16.2636 161.43C16.1245 158.709 15.913 156.002 15.1229 153.409C14.6666 151.874 17.0509 150.955 17.7325 152.394C18.6256 154.25 19.207 156.144 19.5771 158.2C19.7774 159.296 19.936 160.365 20.0973 161.436C20.1224 161.678 20.1474 161.925 20.1975 162.128C20.4507 161.992 20.7038 161.856 20.9542 161.722C21.7416 161.274 22.5233 160.826 23.3747 160.362C25.2192 159.291 27.0471 158.153 29.0112 157.265C31.4345 156.083 33.2011 159.435 30.9699 160.963ZM126.188 170.948C124.09 171.866 121.993 172.787 119.937 173.733C119.071 174.131 118.134 174.542 117.268 174.94C116.559 175.26 115.566 175.869 114.589 176.256C114.539 175.48 114.659 174.52 114.623 174.1C114.556 172.97 114.523 171.974 114.144 170.889C113.721 169.49 111.896 169.482 111.373 170.831C110.372 173.555 109.122 181.175 113.966 180.924C116.086 180.822 118.362 179.319 120.256 178.451C122.969 177.269 125.682 176.086 128.352 174.879C130.979 173.646 128.809 169.824 126.188 170.948ZM99.4407 158.748C95.5012 159.881 91.6758 161.772 88.123 163.884C87.4914 160.64 86.9962 157.36 86.4064 154.141C85.9335 151.682 82.3974 152.714 82.7006 155.07C83.2376 159.235 83.9275 163.431 84.1529 167.637C84.2197 169.337 86.0559 170.67 87.65 169.732C92.0291 167.2 96.5612 165.272 101.132 163.088C103.561 161.906 102.011 157.997 99.4407 158.748ZM64.4416 153.064C66.8509 152.388 70.17 152.199 71.5749 149.951C71.9811 149.275 71.778 148.179 71.038 147.792C68.5953 146.615 65.8159 148.098 63.3398 148.794C61.2004 149.403 59.0359 150.051 56.8686 150.702C56.813 147.458 56.6461 144.206 56.5209 140.979C56.4263 139.318 54.1366 139.321 53.9669 140.94C53.5106 145.135 53.0126 149.306 52.6927 153.471C52.5647 154.828 54.0893 155.913 55.3301 155.565C58.3849 154.764 61.4257 153.893 64.4416 153.064ZM35.5604 128.009C36.9236 127.166 36.6064 124.453 34.7174 124.639C31.4094 125.007 27.954 126.659 24.8381 128.228C24.1898 125.777 23.7975 123.19 23.5277 120.68C23.3663 119.036 20.8235 118.889 20.8652 120.63C20.9487 124.119 21.2575 127.516 21.6553 130.96C21.8055 132.429 23.1215 133.386 24.5181 132.68C26.3042 131.801 28.1321 130.946 29.9933 130.231C31.8546 129.514 33.8744 129.005 35.5604 128.009ZM131.129 151.729C132.987 152.155 135.152 150.933 136.871 150.357C139.542 149.439 142.23 148.585 144.856 147.636C147.324 146.768 146.35 142.859 143.866 143.661C140.427 144.81 137.033 145.984 133.655 147.225C133.227 147.372 132.3 147.962 131.894 147.776C131.532 147.617 131.104 145.466 131.021 145.13C130.456 143.302 129.933 141.499 129.396 139.629C128.909 137.96 126.483 138.569 126.769 140.289C127.206 142.901 127.551 145.569 128.191 148.132C128.62 149.709 129.418 151.334 131.129 151.729ZM101.739 137.543C106.185 135.57 111.056 133.559 115.199 130.944C116.748 129.981 115.891 127.118 113.986 127.811C109.977 129.247 106.001 131.389 102.142 133.431C101.8 131.047 101.833 128.604 102.17 126.225C102.39 124.812 100.017 124.475 99.6855 125.883C98.8926 129.305 98.8425 132.541 99.1708 136.004C99.2876 137.337 100.484 138.11 101.739 137.543ZM72.3317 122.149C74.2958 122.695 77.1837 121.217 79.0533 120.675C81.8243 119.874 84.8234 119.264 87.4692 118.099C89.5001 117.194 88.0061 114.526 86.1811 114.805C83.7801 115.086 81.3958 116.006 79.0561 116.663C77.9516 116.977 76.847 117.292 75.7453 117.603C75.2056 117.74 74.7076 117.898 74.1706 118.035C73.9425 115.834 74.3654 113.222 74.7104 111.307C74.9886 109.699 72.8575 109.051 72.2093 110.612C71.3245 112.946 68.5174 121.064 72.3317 122.149ZM39.6362 96.2951C39.881 97.9894 39.9978 100.755 41.1524 102.074C42.4489 103.543 44.3602 102.739 45.9599 102.266C48.7727 101.487 51.5854 100.71 54.3842 99.8646C56.5904 99.2386 55.7725 95.8277 53.5078 96.3591C51.6215 96.8349 49.7102 97.3495 47.8657 97.8475C47.0978 98.0757 46.291 98.2788 45.5231 98.5069C45.2533 98.5737 44.2934 98.7434 43.7287 98.9214C43.5868 98.493 43.2001 97.803 43.0916 97.5053C42.8606 96.7403 42.6603 95.9307 42.4572 95.1211C42.0455 93.3266 41.8285 91.5906 41.6588 89.771C41.5586 88.2214 39.2077 88.1296 39.2161 89.7377C39.2411 91.9912 39.3162 94.1557 39.6362 96.2951ZM126.246 110.804C126.296 111.864 127.306 113.043 128.528 112.629C132.604 111.177 136.671 109.833 140.925 108.945C143.409 108.428 142.427 104.628 139.982 105.17C136.379 105.932 132.868 106.92 129.412 108.289C128.681 104.928 127.704 101.59 126.436 98.365C125.812 96.7291 123.167 97.3217 123.74 99.0411C125.095 102.892 125.985 106.75 126.246 110.804ZM96.2941 88.4885C96.2857 90.3163 95.6431 93.1986 97.3958 94.4784C99.0206 95.6803 101.894 94.4255 103.594 94.0694C106.415 93.4685 109.195 92.8425 112.016 92.2416C114.595 91.6657 113.602 87.69 111.025 88.2659C108.986 88.7055 106.947 89.1451 104.952 89.6097C103.291 89.9908 101.416 90.6391 99.6549 90.9034C99.1235 89.4984 99.2849 86.8415 99.2181 85.7147C99.1096 83.9842 98.9315 82.2732 98.8648 80.5734C98.773 79.199 96.8366 79.1823 96.7086 80.54C96.4805 83.2136 96.3442 85.8232 96.2941 88.4885ZM84.011 74.13C80.5306 75.2539 76.9778 76.2165 73.4807 77.2738C72.3511 77.6271 71.3524 76.6255 71.2995 75.5655C71.1743 72.0517 70.9406 68.5268 71.0575 64.9879C71.127 63.2519 73.745 63.2769 73.7867 65.0213C73.7978 67.7756 73.9286 70.6078 74.4016 73.3537C77.2894 72.4496 80.2023 71.5036 83.1513 70.6913C85.3993 70.0931 86.1588 73.4122 84.011 74.13Z" fill="#23457B"/>
<path d="M154.032 74.1049C153.13 73.5068 151.917 73.5263 150.932 73.4511C149.728 73.3593 148.481 73.2425 147.243 73.3009C146.89 73.3204 146.392 73.479 146.275 73.8685C146.064 74.3136 146.047 74.5334 146.23 74.9869C146.425 75.3346 146.845 75.5878 147.201 75.5683C148.456 75.5767 149.65 75.4904 150.904 75.4988C151.942 75.4904 153.055 75.6407 154.04 75.1427C154.452 74.9312 154.385 74.3748 154.032 74.1049ZM157.554 69.8539C155.818 70.363 154.006 70.4242 152.187 70.3073C150.957 70.2573 150.916 72.2381 152.17 72.2437C154.148 72.2854 156.01 71.8542 157.89 71.2032C158.764 70.9834 158.452 69.5923 157.554 69.8539ZM165.174 70.1265C164.381 70.6829 163.532 71.1476 162.581 71.4953C161.696 71.8236 160.661 71.8347 159.91 72.4134C159.37 72.8363 159.707 73.6125 160.263 73.8295C161.232 74.1244 162.445 73.5346 163.271 73.1117C164.231 72.6555 165.124 71.9321 165.947 71.2227C166.537 70.7163 165.808 69.6452 165.174 70.1265ZM168.023 65.1882C166.404 66.1648 164.612 66.8659 162.934 67.7534C161.924 68.2931 162.545 69.9262 163.649 69.6146C165.588 69.0582 167.388 67.6727 168.78 66.2148C169.261 65.7002 168.671 64.7737 168.023 65.1882ZM114.203 40.483C114.111 41.3983 115.491 41.7683 115.93 40.9448C116.503 39.7958 116.503 38.363 116.445 37.125C116.437 36.3766 115.224 36.1067 115.071 36.933C114.87 38.1293 114.339 39.3034 114.203 40.483ZM111.746 34.6517C111.601 35.9426 113.758 35.9732 113.791 34.6767C113.799 33.4192 113.86 32.0782 113.694 30.8318C113.532 30.05 112.311 30.1752 112.236 30.8763C111.899 32.106 111.863 33.4053 111.746 34.6517ZM116.075 28.7675C115.983 29.6856 115.814 30.7289 116.1 31.5886C116.345 32.4232 117.828 32.6235 117.97 31.6219C118.148 30.7539 117.953 29.8358 117.911 28.9511C117.895 28.0219 117.853 27.1372 117.906 26.194C117.922 25.4039 116.726 25.2008 116.531 26.0021C116.37 26.9368 116.17 27.8466 116.075 28.7675ZM113.095 24.572C113.062 25.8685 115.132 25.8518 115.076 24.611C115.007 23.1977 114.968 21.7398 114.968 20.3071C114.982 19.2276 113.374 19.2387 113.315 20.2904C113.165 21.6898 113.12 23.0975 113.095 24.572ZM137.481 47.9613C136.78 48.7459 136.123 49.5555 135.441 50.4096C134.852 51.1997 133.933 51.9676 134.05 53.0137C134.12 53.5701 134.523 54.0403 135.127 53.8873C136.165 53.5924 136.493 52.7577 137.024 51.873C137.606 50.902 138.121 49.9506 138.658 48.9546C139.072 48.17 138.084 47.238 137.481 47.9613ZM144.506 47.1295C146.753 45.6689 148.495 42.7616 150.073 40.611C150.637 39.8626 149.391 38.8833 148.784 39.6094C147.841 40.7056 146.898 41.8045 145.911 42.8728C145.042 43.8438 143.982 44.7563 143.301 45.8942C142.911 46.6343 143.738 47.6442 144.506 47.1295ZM144.475 36.9664C143.791 37.8177 142.956 38.6357 142.502 39.6817C142.071 40.6861 143.114 41.7127 144.06 40.9031C144.884 40.1937 145.449 39.1587 146.072 38.2128C146.723 37.2279 147.48 36.2486 147.936 35.2025C148.256 34.4792 147.471 33.7781 146.815 34.3039C145.963 35.0523 145.223 36.0984 144.475 36.9664ZM154.596 34.7852C155.236 34.1954 155.634 33.3441 156.088 32.5846C156.569 31.7833 157.006 30.957 157.403 30.1057C157.723 29.3823 156.847 28.4531 156.241 29.1792C155.634 29.9054 155.069 30.6565 154.504 31.4049C153.942 32.1561 153.308 32.924 152.997 33.8254C152.702 34.7936 153.89 35.3945 154.596 34.7852ZM152.627 29.4769C153.681 28.9622 154.229 27.8577 154.852 26.9146C155.576 25.8017 156.215 24.636 156.814 23.4481C157.237 22.555 156.057 21.8483 155.512 22.6663C154.794 23.6679 154.076 24.6722 153.278 25.6265C152.568 26.5195 151.608 27.2624 151.28 28.3836C151.018 29.2015 151.895 29.8414 152.627 29.4769ZM117.071 60.4253C108.694 46.5202 108.958 30.804 109.662 15.1212C109.754 13.3406 106.983 13.285 106.866 15.1045C106.071 30.562 105.358 48.6457 116.136 61.1263C116.54 61.5965 117.383 60.9566 117.071 60.4253ZM119.589 64.629C118.704 64.3842 118.543 63.6024 118.813 62.9598C118.821 62.8513 118.854 62.6982 118.863 62.5897C122.463 52.1957 129.827 43.5433 136.666 35.094C144.063 26.0048 151.956 17.3274 160.483 9.31489C161.029 8.78072 161.805 9.59032 161.298 10.1467C153.776 18.3011 146.395 26.6002 139.428 35.261C132.732 43.5656 125.317 52.3042 121.6 62.5118C129.963 64.0309 138.132 64.9184 146.673 64.1338C155.701 63.2992 164.631 60.9177 172.967 57.3204C173.651 57.0422 174.216 58.0104 173.506 58.3303C157.595 66.7268 137.147 69.712 119.589 64.629Z" fill="#F0DADF"/>
</svg>
