<svg width="303" height="248" viewBox="0 0 303 248" fill="none" xmlns="http://www.w3.org/2000/svg">
<path d="M274.15 0.673584C282.056 12.1198 305.781 49.6855 301.663 100.927C295.818 173.258 239.543 212.554 230.794 218.399C196.535 241.467 162.925 244.264 142.847 245.974C113.304 248.441 64.4887 253.45 28.915 221.437C12.3013 206.468 4.25418 188.516 0.166992 176.622C3.45257 173.935 6.73471 171.248 9.9618 168.562C20.7371 177.94 39.274 191.953 65.7926 201.417C98.3181 213.06 125.697 211.739 135.099 210.985C172.108 208.116 197.983 193.381 205.063 189.09C217.779 181.456 260.075 156.028 273.276 103.366C285.018 56.3977 266.134 17.7552 260.498 7.23442C265.129 5.00504 269.64 2.83759 274.15 0.673584Z" fill="#5D0746"/>
<path d="M17.1421 155.023L93.3366 101.123L240.18 6.3363C247.084 16.5887 264.489 45.7117 261.331 85.0148C256.683 142.535 211.844 173.86 204.891 178.511C177.582 196.927 150.826 199.146 134.872 200.468C118.132 201.864 79.5475 205.071 44.2008 180.961C31.7397 172.411 22.9598 162.747 17.1421 155.023Z" fill="#23457B"/>
<path d="M209.446 57.6705C209.261 57.4916 209.075 57.3746 208.827 57.1957C208.841 57.8047 208.855 58.4136 208.868 59.0226C208.93 59.0192 208.927 58.9607 208.989 58.9607C208.263 59.0948 207.592 59.1705 206.869 59.3082C208.342 59.9446 209.918 59.8517 211.504 59.9962C213.21 60.2061 214.917 60.5329 216.62 60.557C220.449 60.5364 220.263 54.8838 216.492 54.6602C214.848 54.5742 213.031 54.9182 211.397 55.1969C209.821 55.4136 208.122 55.448 206.801 56.2703C205.063 57.3402 206.336 59.9893 208.208 59.4595C208.27 59.4595 208.27 59.4595 208.332 59.4595C207.964 59.4079 207.661 59.4148 207.293 59.3598C207.912 59.7726 208.462 59.9412 209.192 59.9893C210.53 60.0203 210.551 58.073 209.446 57.6705ZM191.164 100.221C195.255 103.841 201.606 105.406 206.684 106.94C211.517 108.416 213.537 100.586 208.645 99.2924C203.697 98.0023 198.114 95.6284 192.95 95.68C190.703 95.7282 189.43 98.6766 191.164 100.221ZM156.908 120.733C161.119 130.008 165.571 139.156 170.804 147.926C173.267 152.13 179.501 148.222 177.224 144.014C172.41 135.055 166.94 126.537 161.164 118.146C159.282 115.449 155.632 117.902 156.908 120.733ZM117.423 141.11C117.178 149.694 116.745 160.411 120.199 168.424C121.417 171.317 126.216 171.155 126.075 167.509C125.7 158.632 122.339 149.398 120.932 140.55C120.522 138.489 117.502 139.225 117.423 141.11ZM73.5816 148.573C74.2559 145.999 77.5897 145.624 79.0312 147.723C80.3523 149.701 80.7652 152.003 81.0576 154.249C81.4223 156.919 81.7147 159.345 79.1379 161.041C78.1195 161.674 76.6642 161.763 75.6183 161.12C73.0931 159.592 73.2857 157.335 73.2307 154.783C73.186 152.715 73.0174 150.589 73.5816 148.573Z" fill="#F0DADF"/>
<path d="M271.89 8.56912C272.155 9.5978 272.54 10.5611 272.867 11.5898C273.255 12.615 273.455 13.5852 274.559 13.9224C275.048 14.0944 275.588 13.7813 275.822 13.3478C276.407 12.302 275.781 11.404 275.333 10.4407C274.886 9.47738 274.442 8.51407 273.933 7.61269C273.362 6.40855 271.559 7.29617 271.89 8.56912ZM280.467 25.6576C280.322 27.4259 280.542 29.2459 281.124 30.9351C281.705 32.3835 282.479 34.434 284.189 34.7609C285.104 34.926 285.82 34.3618 285.861 33.4466C285.889 32.0498 284.774 31.0384 284.203 29.8342C283.566 28.5097 283.291 27.0578 283.198 25.5991C283.222 23.8342 280.611 23.9511 280.467 25.6576ZM271.164 17.0394C271.477 20.3766 272.192 25.2895 274.976 27.5395C276.149 28.4271 278.316 27.5911 277.673 25.8984C277.095 24.3915 275.973 23.1392 275.213 21.6942C274.387 20.0704 273.864 18.4396 273.524 16.6816C273.314 15.2917 271.012 15.646 271.164 17.0394ZM288.693 46.3412C288.84 47.6176 288.933 48.9525 289.081 50.2289C289.229 51.4434 289.195 52.7817 289.587 53.9273C289.976 55.0145 291.923 55.214 292.078 53.8723C292.388 51.433 291.662 48.7117 291.366 46.2862C291.207 44.5832 288.534 44.5832 288.693 46.3412ZM280.033 42.1508C280.776 45.6016 280.491 49.3206 281.416 52.6441C281.942 54.581 284.482 53.917 284.684 52.1486C285.035 48.6704 283.37 44.7552 282.145 41.4972C281.688 40.1072 279.758 40.7575 280.033 42.1508ZM288.29 69.7703C287.936 67.4653 284.344 67.3621 284.523 69.8529C284.688 71.9172 284.55 73.9883 284.354 76.0594C283.993 79.1076 288.197 79.6236 288.555 76.517C288.81 74.2601 288.641 72.0135 288.29 69.7703ZM293.919 65.9997C293.898 67.7646 293.63 69.4125 293.544 71.1155C293.454 72.6396 293.127 74.2257 294.424 75.2956C295.044 75.8289 295.835 75.8117 296.43 75.2509C297.62 74.1293 297.283 72.5571 297.128 71.0399C296.97 69.3403 296.63 67.6442 296.53 65.9412C296.375 64.3036 293.946 64.3552 293.919 65.9997ZM279.503 99.0963C278.881 101.178 278.196 103.259 277.697 105.399C277.473 106.318 277.914 107.04 278.657 107.632C278.967 107.869 279.269 107.924 279.631 107.852C280.542 107.773 281.261 107.271 281.485 106.356C282.108 104.271 282.486 102.134 282.988 99.9942C283.484 97.672 280.184 96.8291 279.503 99.0963ZM289.948 87.5572C288.968 89.9483 287.932 92.649 287.987 95.2637C288.039 97.5722 291.514 98.047 292.071 95.7213C292.57 93.4609 292.763 91.2075 293.506 88.9402C294.252 86.9173 290.815 85.5308 289.948 87.5572ZM280.594 118.658C280.387 117.385 278.853 116.69 277.762 116.897C276.61 117.103 275.42 118.163 275.571 119.498C275.722 120.833 275.561 121.868 275.347 123.213C275.131 124.497 275.647 125.763 276.933 126.22C278.034 126.623 279.606 126.286 280.126 125.116C280.993 122.969 281.007 120.84 280.594 118.658ZM291.194 114.11C290.437 115.648 289.738 117.124 288.982 118.662C288.287 120.196 287.464 121.49 288.29 123.114C288.607 123.716 289.525 124.063 290.189 123.805C291.878 123.22 292.205 121.634 292.721 120.1C293.296 118.507 293.805 116.914 294.321 115.321C294.947 113.543 292.006 112.39 291.194 114.11ZM277.487 143.484C277.295 145.8 280.649 146.274 281.643 144.489C282.579 142.827 283.085 141.052 284.33 139.504C286.047 137.398 283.191 134.539 281.227 136.528C279.383 138.454 277.731 140.804 277.487 143.484ZM266.323 135.819C264.675 138.348 262.604 140.887 261.634 143.766C261.063 145.48 263.392 146.464 264.524 145.346C266.726 143.292 268.119 140.219 269.705 137.691C271.057 135.534 267.675 133.72 266.323 135.819ZM262.343 156.95C261.871 157.628 261.218 158.312 260.87 159.111C260.526 160.033 260.547 161.065 261.472 161.712C262.339 162.365 263.306 162.159 264.142 161.474C264.799 160.91 265.325 159.988 265.855 159.248C266.33 158.567 266.736 157.769 267.207 157.026C268.26 155.178 265.604 153.169 264.183 154.841C263.526 155.526 262.872 156.207 262.343 156.95ZM265.883 168.857C264.348 171.018 263 173.178 261.713 175.456C260.364 177.857 264.118 179.966 265.463 177.503C266.75 175.163 267.854 172.889 268.897 170.433C269.702 168.472 267.183 167.065 265.883 168.857ZM243.121 170.264C241.391 171.575 243.094 174.52 244.951 173.264C247.824 171.255 250.693 169.064 253.129 166.518C253.545 166.022 253.831 165.224 253.576 164.56C253.253 163.779 252.943 163.48 252.145 163.194C251.471 162.964 250.69 163.287 250.215 163.721C247.955 166.084 245.694 168.321 243.121 170.264ZM239.543 187.312C238.05 188.622 240.049 191.01 241.666 190.002C243.826 188.677 246.362 187.831 248.395 186.328C250.25 185.01 249.09 181.934 246.733 182.591C243.954 183.383 241.628 185.502 239.543 187.312ZM227.942 184.886C226.273 186.383 224.478 187.576 222.554 188.653C220.514 189.792 222.403 192.792 224.443 191.712C226.487 190.576 228.341 189.317 230.134 187.817C231.685 186.51 233.712 184.762 234.155 182.743C234.317 181.828 233.443 180.692 232.48 181.139C230.612 181.845 229.373 183.575 227.942 184.886ZM229.311 203.165C227.763 204.658 226.277 206.272 224.794 207.823C223.129 209.564 225.668 211.759 227.402 210.324C229.07 208.948 230.804 207.572 232.476 206.199C233.97 204.95 236.006 203.688 235.962 201.562C235.941 200.53 235.136 199.938 234.224 199.896C232.212 199.697 230.622 201.919 229.311 203.165ZM195.417 206.636C193.572 208.625 196.425 211.116 198.331 209.433C199.944 208.057 201.86 206.863 203.849 206.027C205.717 205.257 208.022 205.088 209.075 203.179C209.66 202.129 209.268 200.801 208.218 200.216C205.944 198.926 203.243 200.629 201.265 201.827C199.108 203.151 197.137 204.837 195.417 206.636ZM198.496 216.971C196.149 218.175 197.942 222.338 200.412 221.251C201.675 220.735 202.941 220.219 204.269 219.765C205.655 219.311 207.11 219.097 208.057 217.917C209.182 216.62 208.714 214.621 207.004 214.171C205.414 213.72 204.031 214.418 202.586 215.058C201.2 215.633 199.817 216.273 198.496 216.971ZM178.307 213.758C176.119 213.686 175.651 217.405 177.846 217.663C180.286 217.976 185.773 218.767 187.049 216.004C187.338 215.389 187.318 214.477 186.764 214.002C185.463 212.998 184.256 213.266 182.742 213.541C181.287 213.758 179.77 213.789 178.307 213.758ZM180.268 231.173C177.974 231.954 179.02 235.274 181.318 234.799C183.01 234.4 184.765 234.06 186.458 233.657C188.212 233.251 189.544 233.041 190.173 231.204C190.345 230.712 190.146 229.866 189.709 229.511C188.164 228.328 186.902 228.841 185.212 229.425C183.585 230.007 181.958 230.592 180.268 231.173ZM158.821 225.861C156.454 225.971 156.705 229.191 158.897 229.388C161.453 229.635 164.013 229.883 166.62 229.766C168.87 229.656 171 229.794 172.665 228.177C173.501 227.368 173.284 225.851 172.239 225.328C170.212 224.337 168.22 224.987 166.039 225.218C163.613 225.452 161.246 225.748 158.821 225.861ZM156.072 216.916C156.31 216.548 156.296 215.998 156.045 215.64C155.102 214.14 153.592 214.477 152.012 214.57C150.192 214.735 148.373 214.897 146.549 214.993C144.671 215.158 144.729 217.893 146.614 217.914C148.438 217.993 150.261 218.017 152.088 218.1C153.671 218.186 155.195 218.457 156.072 216.916ZM129.695 225.152C127.021 225.273 127.052 229.346 129.784 229.346C131.914 229.363 133.978 229.381 136.108 229.394C137.993 229.415 140.126 229.794 141.619 228.545C142.751 227.609 142.723 226.209 141.55 225.383C139.944 224.203 137.828 224.674 136.004 224.774C133.882 224.881 131.759 225.046 129.695 225.152ZM122.37 234.982C120.065 235.033 117.695 235.147 115.324 235.075C113.318 235.057 113.016 238.047 114.911 238.491C117.233 239.048 119.552 239.485 121.988 239.616C124.052 239.692 126.615 240.122 128.036 238.329C128.628 237.583 128.728 236.547 127.981 235.835C126.43 234.349 124.438 234.937 122.37 234.982ZM108.302 216.734C107.982 216.073 107.188 215.726 106.455 215.743C103.723 215.801 100.991 215.98 98.3216 216.163C95.8927 216.273 95.9718 219.865 98.4042 219.93C101.139 219.992 103.878 220.054 106.548 219.999C107.28 219.982 108.058 219.6 108.347 218.925C108.694 218.065 108.684 217.58 108.302 216.734ZM80.9029 228.4C83.1598 228.717 85.4167 229.154 87.6702 229.408C89.1323 229.56 91.3858 229.756 91.6473 227.74C91.9087 225.789 89.5899 225.352 88.1862 225.201C85.9328 224.946 83.6827 224.75 81.4258 224.557C79.2377 224.423 78.7664 228.08 80.9029 228.4ZM83.4798 235.157C81.4981 233.495 78.1575 233.506 75.7148 233.076C73.7021 232.752 72.8592 235.814 74.9338 236.255C76.3409 236.53 77.7412 236.864 79.1483 237.135C80.49 237.411 81.6529 237.689 83.0394 237.235C83.7619 236.977 84.1644 235.811 83.4798 235.157ZM68.9785 216.555C65.7789 214.797 61.991 213.785 58.6229 212.581C56.5999 211.835 55.2754 215.21 57.2398 216.139C60.553 217.649 63.9383 219.582 67.4234 220.542C69.7457 221.1 71.0702 217.725 68.9785 216.555ZM55.819 220.732C53.0529 219.331 50.1767 218.423 47.1836 217.635C45.2294 217.129 44.4932 219.699 45.9725 220.701C48.3189 222.417 50.7237 223.945 53.3625 225.104C56.3075 226.439 58.7708 222.249 55.819 220.732ZM34.375 198.751C36.4323 201.018 38.906 203.031 41.9576 203.698C44.2179 204.194 45.7868 200.815 43.5127 199.769C41.0597 198.668 38.4278 197.812 36.0883 196.401C34.6089 195.462 33.2568 197.557 34.375 198.751ZM29.6203 206.399C29.2935 205.308 28.485 204.476 27.7384 203.702C27.0538 202.986 26.4277 202.208 25.8669 201.431C25.2373 200.533 24.0744 200.192 23.118 200.76C22.2166 201.328 21.821 202.614 22.4471 203.512C23.1352 204.531 23.8852 205.487 24.6971 206.382C25.5056 207.276 26.4999 208.229 27.7178 208.384C28.9357 208.48 30.0091 207.606 29.6203 206.399ZM17.4998 191.209C15.845 190.576 14.3071 189.637 12.7108 188.822C11.1729 188.062 12.4596 185.784 13.9941 186.482C15.4665 187.177 17.1214 187.752 18.4803 188.633C19.7705 189.455 19.0308 191.784 17.4998 191.209Z" fill="#DFAC35"/>
<path d="M86.9957 125.288C86.1253 127.191 85.9429 130.057 87.2365 130.817C88.5886 131.577 91.3512 129.94 92.2148 127.731C93.0783 125.581 92.3455 122.618 90.8764 122.164C89.5278 121.703 87.7491 123.63 86.9957 125.288ZM172.875 75.251C175.465 77.0228 180.991 73.7992 180.929 71.0022C180.874 68.3875 175.761 65.3358 173.002 67.0973C170.608 68.6696 170.659 73.7786 172.875 75.251ZM156.863 177.665C159.454 179.433 164.976 176.213 164.917 173.416C164.859 170.801 159.75 167.75 156.991 169.514C154.593 171.087 154.644 176.192 156.863 177.665ZM215.185 140.151C214.314 142.053 214.132 144.919 215.426 145.679C216.778 146.44 219.537 144.802 220.401 142.593C221.267 140.443 220.535 137.481 219.066 137.023C217.779 136.566 215.938 138.551 215.185 140.151ZM39.0262 161C42.04 159.84 43.5091 154.635 41.7097 152.849C40.282 151.483 36.5801 151.865 34.9941 154.274C33.5801 156.372 34.0755 159.586 35.923 160.762C37.2785 161.646 38.9058 161.061 39.0262 161ZM240.806 71.7109C243.819 70.5515 245.285 65.3496 243.486 63.564C242.058 62.1982 238.359 62.5801 236.77 64.9849C235.356 67.0835 235.851 70.2969 237.702 71.4735C239.058 72.3577 240.685 71.7762 240.806 71.7109ZM134.246 115.445C136.833 117.214 142.359 113.99 142.297 111.196C142.242 108.582 137.129 105.53 134.373 107.288C131.975 108.864 132.027 113.973 134.246 115.445ZM103.3 179.433C104.769 179.891 105.502 182.856 104.638 185.003C103.713 187.274 100.953 188.853 99.6598 188.093C98.3662 187.329 98.5485 184.466 99.4189 182.56C100.11 180.964 101.893 179.041 103.3 179.433Z" fill="#DFAC35"/>
</svg>
