<svg width="135" height="35" viewBox="0 0 135 35" fill="none" xmlns="http://www.w3.org/2000/svg">
<path d="M19.2067 16.6051C18.8183 16.748 18.449 16.3577 18.6281 15.9937L23.43 6.23729C23.6162 5.85905 24.0078 5.62239 24.4233 5.73581C25.1965 5.9469 26.5725 6.54564 28.3094 8.24197C29.5553 9.36087 30.1815 11.0205 30.4368 11.8729C30.5309 12.1874 30.35 12.507 30.0347 12.623L19.2067 16.6051Z" fill="black"/>
<path d="M18.4923 19.2792C18.3518 18.9097 18.7358 18.5568 19.1077 18.7137L29.2425 22.9877C29.6931 23.1777 29.9502 23.6262 29.7662 24.0687C29.4606 24.8039 28.7516 26.0528 27.114 27.74C26.0642 28.9133 24.603 29.9221 23.7149 30.4812C23.3103 30.7359 22.7807 30.5503 22.6136 30.111L18.4923 19.2792Z" fill="black"/>
<path d="M19.4483 18.0491C19.07 17.8865 19.0871 17.3596 19.4751 17.2203L29.9893 13.4473C30.5272 13.2543 31.1224 13.4793 31.3152 14.0039C31.6035 14.7889 31.9538 16.0492 31.9955 17.6151C32.0372 19.186 31.2496 21.0364 30.7585 22.0305C30.554 22.4444 30.0494 22.6075 29.6172 22.4217L19.4483 18.0491Z" fill="black"/>
<path d="M19.4483 18.0491C19.07 17.8865 19.0871 17.3596 19.4751 17.2203L29.9893 13.4473C30.5272 13.2543 31.1224 13.4793 31.3152 14.0039C31.6035 14.7889 31.9538 16.0492 31.9955 17.6151C32.0372 19.186 31.2496 21.0364 30.7585 22.0305C30.554 22.4444 30.0494 22.6075 29.6172 22.4217L19.4483 18.0491Z" fill="black"/>
<path d="M15.5824 18.6086C15.9675 18.4714 16.3313 18.8548 16.159 19.2165L11.6238 28.7386C11.4376 29.1296 11.0325 29.3714 10.6084 29.2454C9.84082 29.0174 8.49507 28.3989 6.78762 26.7217C5.55508 25.6054 4.91391 23.9717 4.64653 23.1219C4.54614 22.8028 4.73046 22.4764 5.05288 22.3614L15.5824 18.6086Z" fill="black"/>
<path d="M16.8152 19.533C16.9867 19.1728 17.5204 19.1918 17.6643 19.5633L21.7431 30.0979C22.0001 30.7618 21.5603 31.4494 20.8303 31.4646C19.9699 31.4826 18.6585 31.4746 16.7442 31.385C14.6817 31.136 13.1668 30.4802 12.4275 30.0988C12.1288 29.9447 12.0256 29.5937 12.1676 29.2955L16.8152 19.533Z" fill="black"/>
<path d="M16.2727 15.8941C16.4185 16.2667 16.0277 16.6245 15.6534 16.4611L5.73356 12.1291C5.29047 11.9356 5.03895 11.4914 5.21995 11.0535C5.52323 10.3197 6.23112 9.06697 7.87655 7.37181C8.94475 6.17789 10.3771 5.41882 11.2184 5.04371C11.6024 4.87249 12.037 5.06727 12.1871 5.45097L16.2727 15.8941Z" fill="black"/>
<path d="M15.6137 17.1126C15.9907 17.2772 15.9709 17.8034 15.5826 17.9409L5.1436 21.6372C4.64706 21.813 4.09545 21.6334 3.87998 21.1646C3.53818 20.4209 3.10475 19.171 3.06168 17.5514C3.01996 15.9826 3.79448 14.0918 4.2789 13.07C4.48029 12.6452 4.99499 12.475 5.43412 12.6667L15.6137 17.1126Z" fill="black"/>
<path d="M15.6089 17.1174C15.9871 17.2801 15.97 17.807 15.5821 17.9462L5.06786 21.7192C4.52992 21.9122 3.93469 21.6873 3.74196 21.1626C3.45364 20.3777 3.10332 19.1174 3.06168 17.5514C3.0199 15.9805 3.80755 14.1302 4.29865 13.1361C4.50314 12.7221 5.00769 12.559 5.43988 12.7449L15.6089 17.1174Z" fill="black"/>
<path d="M34.3333 17.5C34.3333 26.4543 26.8548 33.75 17.5833 33.75C8.31193 33.75 0.833344 26.4543 0.833344 17.5C0.833344 8.5457 8.31193 1.24998 17.5833 1.24998C26.8548 1.24998 34.3333 8.5457 34.3333 17.5Z" stroke="black" stroke-width="1.5"/>
<path d="M47.7273 16.72C52.2373 16.72 53.9533 14.388 53.9533 11V1.76H51.4673V11.022C51.4673 13.354 50.6093 14.432 47.7273 14.432C44.8453 14.432 44.0313 13.332 44.0313 10.912V10.208H41.5233V10.89C41.5233 14.366 43.2613 16.72 47.7273 16.72ZM60.6162 16.72C63.4323 16.72 64.8843 14.96 65.2362 13.112H65.3683V16.5H67.5463V5.566H65.1923V10.978C65.1923 13.354 64.0703 14.586 61.6503 14.586C59.3403 14.586 58.3942 13.552 58.3942 11.506V5.566H56.0402V12.144C56.0402 14.674 57.5362 16.72 60.6162 16.72ZM72.0808 4.29V1.76H69.7048V4.29H72.0808ZM72.0808 16.5V5.566H69.7048V16.5H72.0808ZM79.803 16.72C83.081 16.72 85.479 14.872 85.479 12.144V11.902H83.125V12.056C83.125 13.75 81.893 14.586 79.759 14.586C77.295 14.586 76.195 13.398 76.195 11.044C76.195 8.646 77.295 7.48 79.759 7.48C81.893 7.48 83.125 8.316 83.125 10.01V10.142H85.479V9.922C85.479 7.194 83.081 5.346 79.803 5.346C76.195 5.346 73.841 7.634 73.841 11.044C73.841 14.41 76.195 16.72 79.803 16.72ZM92.7361 16.72C95.9921 16.72 98.2801 15.114 98.2801 12.782V12.584H95.9041V12.76C95.9041 14.058 94.9581 14.806 92.6701 14.806C90.1401 14.806 89.1061 13.684 89.0181 11.572H98.3021C98.3681 11.242 98.3901 10.934 98.3901 10.538C98.3901 7.216 96.0801 5.346 92.6921 5.346C89.1281 5.346 86.7961 7.634 86.7961 11.044C86.7961 14.696 89.1501 16.72 92.7361 16.72ZM92.6481 7.216C94.9801 7.216 96.1461 8.184 96.1461 10.208V10.252H89.0401C89.1721 8.294 90.2281 7.216 92.6481 7.216ZM49.3553 33.72C53.5353 33.72 56.4173 31.52 56.4173 27.978V27.692H53.7993V27.978C53.7993 30.244 52.3693 31.432 49.3773 31.432C45.9233 31.432 44.2513 29.804 44.2513 26.13C44.2513 22.456 45.9233 20.806 49.3773 20.806C52.3693 20.806 53.7993 22.016 53.7993 24.26V24.568H56.4173V24.26C56.4173 20.74 53.5133 18.54 49.3553 18.54C44.7793 18.54 41.7433 21.532 41.7433 26.13C41.7433 30.728 44.7793 33.72 49.3553 33.72ZM60.5437 33.5V27.362C60.5437 25.404 61.3137 24.37 63.1837 24.37C64.8117 24.37 65.4717 25.096 65.4717 26.658V27.626H67.8257V26.196C67.8257 24.128 66.7477 22.346 64.2617 22.346C62.0177 22.346 60.8297 23.754 60.4997 25.514H60.3457V22.566H58.1677V33.5H60.5437ZM74.8181 33.72C78.0741 33.72 80.3621 32.114 80.3621 29.782V29.584H77.9861V29.76C77.9861 31.058 77.0401 31.806 74.7521 31.806C72.2221 31.806 71.1881 30.684 71.1001 28.572H80.3841C80.4501 28.242 80.4721 27.934 80.4721 27.538C80.4721 24.216 78.1621 22.346 74.7741 22.346C71.2101 22.346 68.8781 24.634 68.8781 28.044C68.8781 31.696 71.2321 33.72 74.8181 33.72ZM74.7301 24.216C77.0621 24.216 78.2281 25.184 78.2281 27.208V27.252H71.1221C71.2541 25.294 72.3101 24.216 74.7301 24.216ZM85.4637 33.72C87.9497 33.72 89.6877 32.62 90.2597 30.772H90.4137V33.5H92.5917V26.856C92.5917 24.238 91.0297 22.346 87.5537 22.346C84.0777 22.346 82.0097 24.216 82.0097 26.702V26.79H84.3637V26.702C84.3637 25.096 85.3537 24.436 87.3777 24.436C89.4677 24.436 90.2597 25.074 90.2597 26.878V27.516L85.2877 28.044C83.1317 28.286 81.7677 29.166 81.7677 30.86C81.7677 32.664 83.1977 33.72 85.4637 33.72ZM84.1437 30.706C84.1437 29.848 84.7377 29.562 85.9697 29.408L90.2597 28.924C90.2597 31.08 88.5877 32.004 86.1017 32.004C84.7377 32.004 84.1437 31.586 84.1437 30.706ZM101.885 33.5V31.366H99.9046C98.5406 31.366 97.9246 31.014 97.9246 29.672V24.546H101.885V22.566H97.9246V20.168H95.5706V22.566H93.7226V24.546H95.5706V29.804C95.5706 32.466 97.0226 33.5 99.3766 33.5H101.885ZM105.747 21.29V18.76H103.371V21.29H105.747ZM105.747 33.5V22.566H103.371V33.5H105.747ZM114.965 33.5L120.113 22.566H117.539L113.645 31.19H113.469L109.575 22.566H106.957L112.061 33.5H114.965ZM126.832 33.72C130.088 33.72 132.376 32.114 132.376 29.782V29.584H130V29.76C130 31.058 129.054 31.806 126.766 31.806C124.236 31.806 123.202 30.684 123.114 28.572H132.398C132.464 28.242 132.486 27.934 132.486 27.538C132.486 24.216 130.176 22.346 126.788 22.346C123.224 22.346 120.892 24.634 120.892 28.044C120.892 31.696 123.246 33.72 126.832 33.72ZM126.744 24.216C129.076 24.216 130.242 25.184 130.242 27.208V27.252H123.136C123.268 25.294 124.324 24.216 126.744 24.216Z" fill="black"/>
</svg>
